<svg width="374" height="337" viewBox="0 0 374 337" fill="none" xmlns="http://www.w3.org/2000/svg">
<path d="M371.395 131.758C370.811 131.836 370.266 132.225 369.488 132.537C369.332 131.68 369.215 131.057 369.137 130.435C368.047 122.728 366.919 115.06 365.946 107.314C365.829 106.263 366.452 105.056 366.958 104.044C367.308 103.305 368.164 102.837 368.553 102.137C368.826 101.67 368.631 100.969 368.631 100.346C368.048 100.346 367.386 100.23 366.88 100.424C366.257 100.658 365.712 101.164 365.089 101.592C363.999 100.268 363.922 99.1007 365.089 97.8941C365.907 97.0377 366.685 96.1814 367.464 95.3251C368.203 94.4687 369.604 93.5346 368.437 92.4447C367.23 91.3159 366.452 92.9507 365.595 93.6124C364.739 94.2352 363.96 94.9748 362.948 95.8311C362.559 94.8969 362.326 94.3131 362.131 93.7292C360.029 87.3067 357.11 81.3513 352.128 76.6415C350.882 75.4349 350.726 74.3839 351.349 72.8659C352.322 70.5304 353.178 68.1561 353.957 65.7428C354.113 65.2757 353.568 64.575 353.334 63.9523C352.789 64.1858 352.166 64.3415 351.699 64.7307C351.349 65.0421 351.193 65.626 350.999 66.0931C350.259 68.0393 349.52 69.9466 348.819 71.8928C348.391 73.0605 347.768 73.294 346.561 72.9048C344.654 72.282 343.603 71.27 343.759 69.0902C343.798 68.5453 343.019 67.9615 342.63 67.3776C342.124 67.8058 341.307 68.195 341.229 68.6621C340.917 70.6083 339.866 70.764 338.193 70.6083C331.615 70.0244 325.387 71.0365 319.782 74.7342C317.291 76.3691 317.29 76.3301 315.15 74.2671C314.799 73.9558 313.982 73.7222 313.67 73.9168C313.359 74.1115 313.203 74.8899 313.281 75.396C313.398 76.1355 313.904 76.8361 313.982 77.6146C314.099 78.3931 314.177 79.3273 313.826 79.9501C312.542 82.1687 311.102 84.3096 309.545 86.7229C307.521 84.115 305.691 81.6627 303.745 79.3662C303.278 78.8213 302.266 78.7434 301.487 78.432C301.526 79.2105 301.293 80.2225 301.682 80.8064C303.239 83.1029 304.874 85.3605 306.664 87.5013C308.027 89.0972 308.299 90.732 307.988 92.7172C307.131 98.2055 306.392 103.733 305.574 109.221C305.458 109.922 305.185 110.583 305.107 110.778C303.745 110.778 302.383 110.389 302.032 110.856C301.098 112.024 302.149 112.958 303.044 113.775C304.64 115.254 304.913 117.2 304.601 119.147C303.862 123.818 303.122 128.488 302.032 133.081C301.332 135.962 300.592 138.998 297.984 141.372C296.972 139.621 296.116 137.986 295.065 136.468C294.753 136.001 293.936 135.923 293.352 135.65C293.196 136.312 292.729 137.091 292.924 137.636C293.547 139.27 294.481 140.749 295.104 142.384C295.376 143.085 295.182 143.98 295.221 144.798C294.481 144.681 293.78 144.564 293.041 144.447C292.457 144.369 291.756 144.058 291.289 144.292C290.978 144.408 290.822 145.304 290.9 145.81C291.211 147.172 290.666 147.95 289.382 148.223C286.657 148.846 283.971 149.43 281.247 150.013C279.612 150.364 278.872 149.741 278.756 148.028C278.483 143.941 278.133 139.893 277.705 135.806C276.187 122.261 274.63 108.754 273.034 95.2472C272.878 93.8849 272.917 92.8339 274.708 92.6004C275.252 92.5225 275.681 91.6273 276.148 91.1213C275.642 90.8488 275.136 90.3428 274.591 90.3428C272.917 90.3039 272.294 89.4865 272.061 87.8906C271.204 82.7137 270.27 77.5368 269.102 72.4377C268.596 70.219 268.947 68.8178 271.088 67.9615C271.555 67.7668 272.139 67.4944 272.372 67.1051C272.683 66.5602 272.722 65.8596 272.878 65.2368C272.255 65.12 271.594 64.8086 271.01 64.9254C270.426 65.0421 269.881 65.5871 269.297 65.7817C268.869 65.9374 268.052 65.9374 267.974 65.7817C267.779 65.3146 267.701 64.614 267.896 64.1858C268.168 63.6409 268.791 63.2516 269.297 62.9013C270.504 62.045 271.827 61.3054 272.956 60.3323C273.462 59.9042 273.54 59.0089 273.812 58.3083C273.034 58.3083 272.255 58.1526 271.516 58.3083C270.971 58.425 270.543 58.9311 270.037 59.2035C268.908 59.8652 267.74 60.488 267.04 60.8773C263.42 52.8589 259.916 45.1519 256.491 37.445C256.18 36.7833 256.413 35.8491 256.569 35.0706C256.802 33.864 256.569 33.2801 255.207 33.1244C254.35 33.0076 253.299 32.5405 252.793 31.9177C244.347 21.4082 233.487 14.869 220.486 11.6772C217.528 10.9377 217.528 10.9766 217.762 8.05728C217.801 7.78482 217.878 7.47342 217.762 7.2788C217.528 6.81171 217.217 6.15 216.827 6.07216C216.438 5.99431 215.776 6.42247 215.504 6.85064C215.154 7.35665 214.959 8.01836 214.803 8.64115C214.375 10.0424 213.402 10.1592 212.195 9.92564C210.833 9.65317 210.911 8.71899 211.067 7.66804C211.339 5.87754 211.612 4.08703 211.845 2.2576C211.962 1.32342 212.118 0.0389241 210.794 0C210.249 0 209.432 1.08987 209.237 1.79051C208.77 3.54209 208.537 5.3326 208.342 7.16203C208.186 8.71899 207.563 9.41963 205.851 9.3807C202.075 9.30286 198.338 9.49748 194.563 9.3807C193.94 9.3807 192.967 8.52437 192.811 7.90159C192.461 6.53925 192.656 5.06013 192.344 3.65886C192.188 3.03608 191.371 2.56899 190.865 2.02405C190.476 2.68576 189.814 3.26962 189.775 3.97026C189.658 5.09905 189.892 6.3057 190.009 7.4345C190.203 8.95254 189.853 9.88672 188.063 9.92564C186.7 9.96457 185.377 10.4706 184.014 10.4317C183.314 10.3927 182.535 9.76994 181.912 9.22501C181.29 8.68007 180.823 7.94051 180.278 7.31773C179.811 8.09621 179.382 8.87469 178.876 9.61425C178.448 10.276 178.137 11.3269 177.592 11.4826C173.388 12.6893 169.106 13.7013 164.786 14.8301C164.358 13.7791 163.969 12.8449 163.579 11.8718C162.879 10.1981 162.256 8.48545 161.438 6.88956C161.244 6.4614 160.465 6.3057 159.959 6.03323C159.726 6.57817 159.375 7.12311 159.298 7.66804C159.22 8.05728 159.453 8.52437 159.609 8.95254C160.193 10.6263 160.621 12.3 161.361 13.8959C162.217 15.7253 161.594 16.6595 159.882 17.3601C158.636 17.8662 157.429 18.4889 156.184 19.1117C153.109 20.5908 153.148 20.5519 151.085 17.7883C150.695 17.2434 149.8 17.0487 149.138 16.6595C149.061 17.3991 148.905 18.1775 148.905 18.9171C148.905 19.2674 149.138 19.6567 149.411 19.9681C150.812 21.6029 150.15 22.6538 148.671 23.9383C145.246 26.8965 141.899 29.9326 138.668 33.1244C136.8 34.9538 135.243 37.0946 133.335 39.3133C132.557 38.3402 132.051 37.5228 131.35 36.9C130.844 36.4719 130.066 36.3551 129.404 36.0826C129.326 36.7833 129.015 37.5228 129.209 38.1067C129.482 39.0019 130.299 39.7415 130.572 40.6367C130.844 41.4931 131.078 42.6219 130.727 43.3614C129.793 45.5023 128.548 47.4874 127.419 49.5114C126.913 50.4456 126.329 50.8738 125.239 50.2121C124.305 49.6282 123.137 48.5773 122.203 49.8618C121.969 50.2121 122.904 51.7301 123.604 52.3529C124.967 53.4817 125.161 54.4937 124.461 56.1674C123.332 58.8532 122.553 61.6558 121.736 64.4583C120.996 66.9105 120.412 69.4016 119.751 71.8928C119.089 71.7371 118.7 71.5425 118.35 71.5814C117.571 71.6592 116.831 71.8539 116.092 71.9706C116.481 72.6323 116.715 73.4887 117.298 73.9168C119.478 75.6295 119.712 77.3032 117.766 80.2225C116.87 79.5998 116.014 78.938 115.158 78.3153C113.951 77.42 112.783 76.4858 111.538 75.7073C111.149 75.4738 110.253 75.4738 110.059 75.7073C109.786 76.0577 109.747 76.8361 109.942 77.3032C110.137 77.8092 110.681 78.1985 111.11 78.5488C112.705 79.8722 114.301 81.2346 116.014 82.4023C117.454 83.3754 117.805 84.621 117.61 86.2558C117.026 90.8099 116.403 95.4029 116.014 99.9571C115.119 111.284 114.379 122.572 113.523 133.899C113.484 134.599 113.173 135.3 112.9 136.273C111.226 135.067 109.942 134.016 108.541 133.12C108.073 132.848 107.334 133.043 106.75 133.004C106.789 133.626 106.672 134.366 106.984 134.872C107.295 135.456 107.957 135.884 108.502 136.351C109.786 137.48 111.071 138.609 112.122 139.543C111.149 140.01 110.292 140.399 109.436 140.788C109.981 141.567 110.409 142.54 111.149 143.046C112.628 144.058 113.056 145.42 113.017 147.055C112.939 153.011 112.861 159.005 112.861 164.96C112.822 177.338 112.861 189.755 112.861 202.133C112.861 202.833 113.017 203.651 112.744 204.235C112.511 204.741 111.81 205.363 111.343 205.363C107.801 205.363 107.1 204.78 106.088 201.471C105.777 200.381 105.154 199.758 104.181 200.459C103.753 200.77 103.597 201.705 103.558 202.366C103.442 203.729 103.052 204.274 101.612 203.69C100.094 203.106 98.4982 202.756 96.9801 202.172C92.8153 200.576 89.1953 198.124 86.276 194.659C85.4197 193.647 85.4197 192.869 86.5096 192.09C87.5606 191.351 88.7282 190.689 89.5846 189.755C90.0517 189.288 90.0128 188.315 90.2074 187.575C89.5068 187.575 88.6504 187.381 88.1054 187.653C86.6263 188.431 85.2641 189.444 83.7071 190.456C83.2789 189.794 82.8118 189.249 82.5782 188.626C80.9434 183.877 79.1919 179.129 77.7517 174.302C76.8175 171.188 77.051 171.188 79.7757 169.359C80.3985 168.931 80.6709 167.996 81.0991 167.296C80.2817 167.218 79.3475 166.79 78.6858 167.062C76.9342 167.88 76.3115 167.335 76.1947 165.583C75.7666 159.706 75.3384 153.828 74.8324 147.95C74.6378 145.849 75.2994 144.331 77.2067 143.28C77.7127 143.007 77.8684 142.151 78.1798 141.606C77.557 141.372 76.9342 141.139 76.3504 140.944C75.8444 140.749 75.1048 140.749 74.9102 140.399C74.0928 138.998 74.988 135.806 76.1558 134.483C76.7785 133.821 77.0511 132.809 77.4792 131.992C76.584 131.953 75.6887 131.914 74.7934 131.875C74.6766 131.875 74.5599 131.836 74.2485 131.758C74.0928 131.174 73.8593 130.512 73.7425 129.812C72.6137 123.856 70.1615 118.796 64.9067 115.293C61.9096 113.308 61.9874 113.191 63.1552 109.766C63.2719 109.416 63.5444 108.949 63.4276 108.676C63.233 108.092 62.9216 107.469 62.4935 107.158C62.2988 107.002 61.4035 107.508 61.17 107.898C60.7029 108.598 60.5083 109.416 60.1969 110.194C59.7687 111.284 59.1849 111.79 57.8226 111.284C54.7865 110.155 54.7864 110.233 54.9421 107.08C54.9811 106.496 55.2146 105.874 55.0589 105.329C54.8254 104.628 54.3583 104.005 53.969 103.382C53.5019 103.927 52.8013 104.355 52.6067 104.978C52.1785 106.38 51.9839 107.82 51.7114 109.377C39.4114 108.481 29.1744 111.907 22.207 122.533C21.5842 122.105 21.1561 121.871 20.7668 121.56C19.8716 120.82 19.1709 119.069 17.8475 120.314C16.4852 121.638 18.1978 122.689 18.9763 123.506C20.2997 124.868 20.3776 126.153 19.5212 127.71C19.132 128.411 18.7038 129.072 18.4703 129.812C17.9643 131.563 17.108 132.459 15.1228 131.758C14.6168 131.563 13.8772 132.069 13.2545 132.264C13.6048 132.848 13.8383 133.821 14.3833 134.016C16.2905 134.755 16.2127 136.001 15.7456 137.597C13.1766 146.51 11.2304 155.58 10.4519 164.843C10.2962 166.478 9.98483 168.113 9.75129 169.943C8.73926 169.514 8.03865 169.047 7.2991 168.969C6.40384 168.892 5.4307 169.086 4.53545 169.203C5.00254 169.865 5.46965 170.565 5.97567 171.188C6.17029 171.422 6.48167 171.616 6.79306 171.694C9.40098 172.628 9.71238 174.497 9.67346 177.066C9.59561 184.85 9.86808 192.596 10.0627 200.342C10.1405 202.833 10.4519 205.325 10.6466 208.127C9.71238 207.932 9.05067 207.894 8.50573 207.66C6.55953 206.804 4.61333 205.908 2.66712 205.013C1.81079 204.624 0.798756 203.923 0.17597 205.208C-0.446815 206.492 0.720907 206.959 1.53831 207.349C3.99053 208.516 6.48166 209.606 8.9728 210.696C10.6465 211.436 11.5807 212.564 11.931 214.433C14.8114 230.158 22.207 243.353 34.6238 253.59C35.0519 253.941 35.2855 254.563 35.6747 255.108C34.8962 255.498 34.2734 255.653 33.9231 256.082C33.495 256.549 33.3393 257.21 33.0668 257.794C33.6118 258.028 34.1567 258.378 34.7406 258.417C35.2077 258.456 35.7526 258.222 36.2197 257.989C38.0102 257.171 39.5282 257.561 41.1241 258.651C44.1991 260.791 47.352 262.893 50.6216 264.723C60.4305 270.289 70.8232 274.337 81.7609 277.101C82.5783 277.295 83.3956 277.723 84.4076 278.113C82.9675 280.098 81.6052 281.771 80.5542 283.562C80.2039 284.146 80.5153 285.119 80.5542 285.936C81.2548 285.625 82.1111 285.508 82.5782 285.002C84.0574 283.289 85.4198 281.46 86.821 279.67C88.0666 278.113 89.6235 278.619 91.0637 279.164C92.6985 279.747 91.7644 280.954 91.4919 281.966C91.3362 282.589 90.947 283.212 90.9859 283.834C91.0248 284.379 91.3362 285.158 91.7644 285.352C92.1536 285.508 93.0878 285.158 93.3213 284.73C93.8663 283.795 94.1387 282.706 94.4501 281.655C94.8004 280.487 95.5011 279.903 96.7467 280.02C101.768 280.448 106.828 280.876 111.849 281.343C113.056 281.46 113.718 282.083 113.756 283.367C113.834 285.586 114.029 287.766 114.107 289.984C114.185 292.281 114.107 294.577 114.107 297.224C112.083 296.057 110.292 294.928 108.385 293.994C107.762 293.682 106.906 293.955 106.127 293.955C106.439 294.694 106.555 295.706 107.1 296.173C108.346 297.185 109.825 297.886 111.187 298.781C112.316 299.521 114.068 300.183 114.301 301.195C115.002 303.958 115.002 306.877 115.313 309.719C115.08 309.836 114.846 309.914 114.574 310.03C113.095 309.096 111.694 308.084 110.175 307.267C109.631 306.955 108.774 307.228 108.035 307.267C108.229 307.967 108.19 308.863 108.657 309.252C109.864 310.303 111.226 311.237 112.628 312.015C114.652 313.222 115.586 314.896 115.703 317.27C115.975 322.953 116.364 328.675 116.754 334.358C116.948 336.966 117.337 337.16 119.906 336.927C121.463 336.771 121.658 335.954 121.619 334.708C121.269 325.561 120.957 316.453 120.646 307.306C120.646 306.761 120.685 305.982 121.035 305.749C121.347 305.515 122.125 305.71 122.592 305.943C123.76 306.527 124.772 307.345 125.979 307.851C126.562 308.084 127.341 307.851 128.042 307.812C127.808 307.111 127.769 306.138 127.263 305.749C125.745 304.581 124.071 303.53 122.359 302.596C120.996 301.817 120.296 300.844 120.218 299.209C119.751 286.364 118.856 273.558 118.739 260.752C118.544 242.263 118.855 223.775 118.972 205.286C119.089 190.962 119.167 176.637 119.323 162.275C119.478 151.765 119.439 141.255 120.062 130.785C120.88 117.512 122.281 104.317 123.449 91.0824C123.487 90.5374 123.721 89.9925 123.916 89.214C124.616 89.5254 125.122 89.8757 125.628 89.9536C126.251 90.0703 126.913 89.9536 127.575 89.9536C127.419 89.2529 127.419 88.4744 127.03 87.8906C126.601 87.2678 125.706 86.9953 125.317 86.3725C124.85 85.5941 124.266 84.5431 124.461 83.8035C126.056 76.3301 127.691 68.8956 129.482 61.4611C130.338 57.9969 130.455 58.0747 133.647 59.7095C134.192 59.982 135.009 59.7095 135.671 59.7095C135.437 59.0089 135.398 58.1526 134.97 57.6076C134.114 56.6735 133.063 55.9339 131.934 54.9997C133.141 52.82 134.269 50.7181 135.554 48.3826C137.344 51.0295 138.785 53.2482 140.419 55.3501C140.77 55.8171 141.743 55.8561 142.443 56.0896C142.443 55.35 142.716 54.4159 142.405 53.8709C141.393 52.0026 140.147 50.251 138.979 48.4605C137.15 45.619 137.189 45.658 139.096 42.9722C146.686 32.4627 156.534 24.9503 168.834 20.8633C172.415 19.6567 176.152 18.8782 179.888 17.8662C180.2 18.6836 180.317 19.2674 180.628 19.6177C181.056 20.1627 181.679 20.5519 182.185 21.019C182.496 20.3962 183.08 19.8124 183.08 19.1896C183.119 17.7105 183.781 17.0877 185.221 17.0098C191.643 16.6984 198.027 16.3481 204.45 16.1146C205.15 16.0756 206.162 16.5427 206.59 17.0877C207.486 18.2554 208.303 18.1386 209.432 17.5937C210.327 17.1655 211.456 16.6984 212.312 16.8931C218.462 18.1386 224.573 19.6177 230.256 22.4203C237.302 25.8845 243.14 30.8279 247.967 36.9779C248.94 38.2234 249.134 39.3912 247.733 40.52C247.5 40.7146 247.188 41.026 247.149 41.2985C247.071 41.8823 246.955 42.6997 247.227 42.9722C247.539 43.2447 248.395 43.1279 248.94 42.9333C249.563 42.6997 250.069 42.2326 250.652 41.8434C250.925 42.2716 251.081 42.4662 251.236 42.6997C255.713 50.1731 258.282 58.3861 260.773 66.638C261.551 69.207 261.434 71.1532 258.71 72.3209C258.476 72.4377 258.204 72.5934 258.126 72.788C257.892 73.2551 257.464 74.0336 257.659 74.2282C258.009 74.6175 258.71 74.851 259.255 74.8899C259.722 74.8899 260.189 74.5007 260.656 74.2671C261.901 73.5276 262.563 73.8779 262.836 75.2792C263.303 77.8871 263.965 80.495 264.315 83.1029C266.105 97.3881 268.013 111.634 269.57 125.958C270.971 138.842 271.983 151.765 273.112 164.688C274.746 183.916 276.265 203.184 277.938 222.451C279.456 239.811 281.013 257.21 282.998 274.532C283.504 279.125 282.882 282.355 278.95 284.963C276.887 286.326 275.291 288.389 273.54 290.218C273.267 290.49 273.112 291.386 273.306 291.541C273.657 291.892 274.357 292.125 274.824 292.047C275.33 291.97 275.836 291.502 276.226 291.113C278.25 289.284 280.235 287.415 282.259 285.625C282.57 285.352 283.076 285.275 283.66 285.041C283.855 286.17 284.088 286.987 284.166 287.805C284.672 294.772 285.256 301.778 285.606 308.746C285.957 315.207 286.034 321.708 286.268 328.169C286.385 331.4 286.696 331.672 289.538 331.555C293.352 331.4 293.352 331.4 293.119 327.313C293.119 327.118 293.119 326.923 293.119 326.729C292.301 312.444 291.523 298.12 290.589 283.834C290.394 280.565 290.083 277.451 293.274 275.388C293.313 275.349 293.391 275.31 293.391 275.232C293.469 274.648 293.547 274.064 293.625 273.52C293.041 273.442 292.418 273.247 291.834 273.364C291.328 273.481 290.861 273.87 290.355 274.181C289.109 271.223 289.576 269.121 291.678 267.175C292.729 266.202 293.741 265.19 294.559 264.061C294.987 263.477 294.948 262.504 295.143 261.726C294.286 261.959 293.352 262.037 292.651 262.504C291.562 263.244 290.666 264.256 289.304 265.462C289.032 264.022 288.759 263.049 288.681 262.037C288.37 259.118 288.175 256.237 287.903 253.318C287.046 244.677 286.19 236.036 285.334 227.394C285.217 226.188 285.567 225.604 286.774 225.37C290.705 224.67 294.715 223.424 297.478 227.823C297.595 227.978 297.751 228.173 297.906 228.212C298.49 228.368 299.113 228.445 299.736 228.523C299.736 227.9 299.93 227.122 299.658 226.616C299.23 225.721 298.529 224.942 297.867 224.086C298.334 223.813 298.529 223.658 298.763 223.58C299.308 223.385 299.891 223.269 300.436 223.113C309.895 221.128 319.392 219.298 328.423 215.795C330.447 215.017 332.237 214.978 334.145 216.106C334.806 216.496 335.857 216.223 336.752 216.262C336.441 215.445 336.091 214.627 335.779 213.81C335.74 213.693 335.702 213.576 335.702 213.46C337.025 211.942 338.504 211.669 340.528 212.525C341.307 212.837 342.046 213.343 342.825 213.499C343.409 213.576 344.07 213.187 344.693 213.032C344.46 212.448 344.343 211.747 343.992 211.28C343.642 210.813 343.019 210.501 342.241 209.918C343.097 209.295 343.681 208.789 344.382 208.361C354.346 202.094 362.014 193.959 365.011 182.204C365.673 179.596 366.763 177.883 369.721 177.922C370.227 177.922 370.811 177.766 371.2 177.494C371.667 177.182 371.94 176.599 372.29 176.17C371.823 175.82 371.356 175.197 370.85 175.158C369.76 175.042 368.67 175.236 367.619 175.275C367.035 172.94 367.386 172.395 369.76 171.227C370.266 170.993 370.694 170.41 370.889 169.904C370.967 169.67 370.383 168.892 370.033 168.853C368.009 168.619 368.437 167.296 368.476 165.972C368.826 157.643 369.137 149.274 369.41 140.944C369.488 138.531 369.682 136.273 371.901 134.755C372.251 134.522 372.64 134.171 372.835 133.782C373.069 133.237 373.069 132.614 373.185 132.069C372.602 131.836 371.979 131.641 371.395 131.758ZM110.681 274.493C105.193 273.948 99.7438 273.247 94.2555 272.585C93.8273 272.546 93.2046 272.391 93.0489 272.079C92.0368 270.211 90.7523 270.795 89.1175 271.145C87.833 271.418 86.315 270.951 84.9526 270.6C72.4969 267.486 60.7029 262.776 49.7652 255.965C49.2592 255.653 48.7921 255.225 48.2083 254.758C48.5975 254.291 48.909 254.057 49.0647 253.707C49.2982 253.201 49.6096 252.539 49.4539 252.189C49.2593 251.839 48.4029 251.488 48.0526 251.605C44.744 252.968 42.5254 251.138 40.2678 249.231C32.3273 242.614 26.0994 234.712 22.207 225.059C19.5602 218.442 18.4703 211.475 17.614 204.468C16.602 196.138 16.3684 187.809 16.563 179.44C16.6019 177.766 17.0301 177.338 18.6649 177.961C19.2877 178.194 20.144 177.766 20.8836 177.65C20.5332 176.91 20.2997 175.742 19.7548 175.548C17.0301 174.575 16.9133 172.589 17.1079 170.215C18.0421 158.226 20.0273 146.432 24.0754 135.067C24.6592 133.393 25.0874 131.524 27.0725 130.746C27.345 130.629 27.7342 130.084 27.6564 129.851C26.8779 127.126 28.7462 125.413 30.1864 123.701C35.2466 117.629 41.9804 115.877 49.5706 116.422C50.5826 116.5 51.2054 116.889 51.3222 118.057C51.3611 118.602 51.8282 119.38 52.2564 119.497C52.6846 119.614 53.5019 119.147 53.7744 118.718C54.5529 117.512 55.4871 117.784 56.4602 118.212C62.7659 121.015 66.814 125.608 67.5146 132.692C67.6314 133.665 67.7093 134.638 67.9039 135.573C68.1763 137.285 67.6704 138.609 66.1913 139.582C65.8799 139.776 65.4516 140.01 65.3348 140.321C65.0624 141.022 64.9456 141.8 64.751 142.579C65.4905 142.579 66.2301 142.579 66.9308 142.54C67.1643 142.54 67.3978 142.384 67.9817 142.112C68.1374 143.669 68.4099 145.031 68.4488 146.393C68.6434 156.903 69.383 167.374 71.9131 177.65C73.3922 183.761 75.3384 189.755 78.8026 195.087C83.9795 203.145 91.3751 208.01 100.717 209.84C103.714 210.424 104.493 211.163 104.493 214.16C104.493 214.939 104.493 215.717 104.493 216.496C104.531 217.586 104.609 218.87 105.972 218.714C106.478 218.637 107.1 217.196 107.217 216.34C107.373 214.939 107.1 213.499 107.023 212.097C107.023 211.981 107.139 211.864 107.178 211.747C107.295 211.669 107.412 211.552 107.49 211.552C112.861 211.046 112.822 211.046 112.822 216.379C112.822 227.278 112.783 238.176 112.822 249.075C112.861 256.704 113.095 264.372 113.25 272.001C113.25 274.259 112.939 274.726 110.681 274.493ZM360.963 167.529C360.885 168.697 360.418 169.475 359.134 169.67C358.511 169.748 357.81 169.865 357.265 170.137C356.837 170.371 356.215 171.032 356.292 171.344C356.448 171.85 357.032 172.395 357.538 172.512C360.068 173.095 360.068 173.056 359.445 175.548C358.083 180.88 356.721 186.213 353.49 190.806C350.103 195.671 345.666 199.447 340.606 202.405C337.103 204.468 333.327 206.064 329.668 207.855C327.683 208.828 325.815 208.633 323.947 207.426C322.934 206.765 321.806 206.22 320.716 205.636C319.821 205.169 318.692 204.702 318.264 205.947C318.108 206.414 318.964 207.426 319.548 207.932C320.404 208.672 321.416 209.178 322.39 209.801C322.39 210.034 322.351 210.229 322.351 210.462C318.497 211.552 314.721 212.798 310.79 213.615C303.434 215.172 296.038 216.418 288.642 217.819C288.331 217.897 288.02 217.936 287.669 217.975C284.672 218.364 284.555 218.169 284.283 215.133C283.232 202.288 282.142 189.444 281.091 176.56C280.585 170.41 280.196 164.299 279.729 158.149C279.651 156.864 280.118 156.202 281.441 156.124C285.957 155.93 290.316 155.074 294.364 152.972C295.454 152.388 296.427 152.621 297.361 153.517C297.79 153.906 298.568 153.828 299.191 153.945C299.23 153.244 299.541 152.427 299.269 151.921C298.724 150.948 298.763 150.247 299.58 149.546C306.586 143.241 308.844 134.833 309.973 125.919C311.218 116.072 312.386 106.224 313.904 96.4539C314.371 93.3789 315.967 90.4596 317.057 87.5013C317.213 87.0732 317.641 86.7229 318.225 85.9833C319.431 88.2409 320.404 90.1093 321.455 91.9387C321.806 92.5615 322.078 93.2621 322.584 93.7292C322.934 94.0406 323.713 94.2352 324.102 94.0406C324.452 93.846 324.764 92.9896 324.608 92.6004C324.141 91.3159 323.479 90.1482 322.896 88.9026C322.273 87.6181 321.728 86.2947 321.027 85.0491C320.132 83.4143 320.56 82.1687 322 81.1956C328.423 76.914 335.196 75.4349 342.63 78.3153C346.289 79.7165 348.624 82.4412 350.726 85.5551C353.801 90.1092 355.008 95.364 356.682 100.463C356.915 101.203 356.565 102.37 356.098 103.071C355.202 104.394 353.879 105.445 352.945 106.769C352.556 107.314 352.711 108.209 352.634 108.949C353.334 108.793 354.113 108.832 354.658 108.481C355.397 108.014 355.981 107.236 356.604 106.613C357.577 105.64 358.316 105.718 358.589 107.158C359.212 110.661 359.99 114.164 360.379 117.668C361.08 123.895 361.508 130.201 362.209 136.429C362.442 138.414 361.859 139.854 360.418 141.061C360.107 141.294 359.718 141.528 359.562 141.839C359.212 142.579 358.978 143.396 358.706 144.175C359.523 144.175 360.302 144.175 361.119 144.136C361.353 144.136 361.625 144.058 362.131 143.98C362.209 144.72 362.365 145.381 362.326 146.043C361.936 153.322 361.43 160.445 360.963 167.529Z" fill="#F7F7F7"/>
<path d="M254.662 144.876C253.65 143.708 252.599 144.136 251.586 144.953C251.119 145.304 250.73 145.732 250.263 146.082C245.943 149.352 241.817 153.011 237.224 155.813C220.019 166.323 201.569 171.266 181.329 167.568C168.445 165.233 157.196 159.822 148.282 150.13C145.168 146.705 142.677 142.696 139.797 139.076C139.329 138.453 138.356 138.064 137.578 137.947C137.15 137.869 136.215 138.609 136.177 138.998C136.138 139.971 136.254 141.139 136.76 141.878C138.707 144.837 140.809 147.717 142.949 150.559C144.078 152.077 144.584 153.517 143.767 155.424C143.144 156.903 142.988 158.538 142.56 160.523C143.027 161.379 143.378 162.859 144.234 163.248C145.207 163.676 146.686 163.287 147.815 162.859C148.71 162.508 149.566 161.691 150.111 160.834C151.318 159.083 152.33 159.628 153.809 160.523C157.429 162.781 161.127 164.921 164.903 166.868C166.46 167.646 167.043 168.541 167.16 170.254C167.238 172.084 167.511 174.03 168.25 175.665C169.457 178.35 171.675 178.817 173.933 176.91C175.179 175.859 176.035 174.341 176.93 172.94C177.553 172.006 178.059 171.422 179.382 171.578C184.52 172.122 189.697 172.59 194.835 172.94C196.198 173.018 196.937 173.485 197.521 174.691C198.299 176.209 199.195 177.805 200.362 179.012C201.958 180.686 204.488 180.374 205.773 178.467C206.59 177.26 207.291 175.82 207.524 174.419C207.875 172.317 209.043 171.383 210.989 171.071C211.612 170.955 212.273 170.955 212.896 170.721C217.917 169.009 222.938 167.374 227.921 165.505C230.762 164.415 230.957 164.338 233.214 166.401C233.915 167.062 234.732 167.607 235.589 168.074C238.236 169.553 240.96 168.347 241.466 165.389C241.7 163.948 241.739 162.43 241.622 160.951C241.466 159.161 241.972 157.798 243.49 156.786C245.086 155.696 246.721 154.607 248.2 153.4C250.302 151.687 252.326 149.819 254.311 147.99C255.284 147.094 255.596 145.965 254.662 144.876ZM146.297 160.367C145.908 160.29 145.596 159.667 145.324 159.394C145.596 158.343 145.713 157.487 146.063 156.747C146.297 156.241 147.075 155.424 147.192 155.502C147.932 155.93 148.788 156.436 149.099 157.137C149.605 158.227 147.465 160.64 146.297 160.367ZM171.636 174.73C169.34 174.886 170.508 172.239 169.301 170.721C170.002 170.215 170.702 169.359 171.092 169.515C172.298 169.943 173.388 170.721 174.517 171.383C173.583 172.551 172.687 174.691 171.636 174.73ZM202.503 177.027C201.53 176.91 199.856 174.653 200.246 173.563C200.907 171.733 202.62 172.745 203.904 172.551C204.294 172.512 204.8 173.173 205.033 173.368C204.722 175.937 203.749 177.183 202.503 177.027ZM238.742 165.077C238.391 166.206 236.912 166.128 235.939 165.311C235.161 164.649 234.46 163.909 233.448 162.936C235.005 162.08 236.367 161.302 237.768 160.601C238.002 160.484 238.625 160.601 238.664 160.64C238.742 162.119 239.17 163.715 238.742 165.077Z" fill="#F7F7F7"/>
<path d="M143.572 207.387C143.3 207.699 142.872 208.555 142.56 208.516C141.976 208.399 141.237 207.932 141.042 207.426C139.797 204.156 138.668 200.848 137.578 197.539C136.761 195.165 135.943 192.752 135.32 190.338C135.165 189.638 135.71 188.781 135.904 188.003C136.527 188.509 137.461 188.937 137.695 189.599C139.563 194.854 141.315 200.108 143.066 205.402C143.261 205.947 143.378 206.492 143.572 207.387Z" fill="#F7F7F7"/>
<path d="M259.916 229.496C259.294 230.586 259.021 231.248 258.593 231.793C255.401 236.191 252.171 240.551 248.94 244.91C248.706 245.221 248.473 245.611 248.161 245.766C247.577 246.039 246.916 246.117 246.293 246.272C246.254 245.572 245.904 244.715 246.176 244.209C246.955 242.808 248.006 241.563 248.94 240.239C251.431 236.853 253.922 233.505 256.452 230.119C256.802 229.652 257.192 229.029 257.659 228.951C258.282 228.912 258.982 229.263 259.916 229.496Z" fill="#F7F7F7"/>
<path d="M180.706 243.82C180.044 243.392 179.071 243.12 178.837 242.536C176.775 237.398 174.828 232.182 172.882 227.005C172.765 226.694 172.726 226.382 172.571 225.798C172.765 225.565 173.038 224.903 173.31 224.864C173.855 224.864 174.673 225.098 174.867 225.487C175.918 227.706 176.891 229.924 177.787 232.221C178.993 235.296 180.161 238.371 181.173 241.485C181.406 242.108 180.9 243.003 180.706 243.82Z" fill="#F7F7F7"/>
<path d="M193.123 216.145C192.811 216.535 192.383 217.041 191.955 217.586C191.449 217.08 190.593 216.69 190.476 216.107C189.464 210.969 188.491 205.831 187.712 200.654C187.595 199.914 188.374 199.058 188.763 198.279C189.269 198.941 190.087 199.564 190.203 200.264C191.215 205.402 192.111 210.579 193.123 216.145Z" fill="#F7F7F7"/>
<path d="M206.746 272.43C206.318 274.026 206.045 275.271 205.695 276.517C204.605 280.254 203.554 283.951 202.309 287.649C202.075 288.311 201.102 288.7 200.479 289.206C200.246 288.467 199.662 287.649 199.818 286.987C201.18 282.083 202.62 277.179 204.177 272.313C204.333 271.807 205.15 271.145 205.617 271.184C206.045 271.184 206.435 272.08 206.746 272.43Z" fill="#F7F7F7"/>
<path d="M234.966 206.609C234.849 206.609 234.732 206.609 234.616 206.609C234.616 210.424 234.694 214.239 234.538 218.014C234.499 218.715 233.798 219.921 233.292 219.999C231.93 220.194 231.93 218.909 231.969 217.936C232.008 213.071 232.008 208.205 232.202 203.379C232.241 202.6 233.059 201.861 233.526 201.121C233.993 201.9 234.694 202.639 234.927 203.495C235.161 204.469 234.966 205.558 234.966 206.609Z" fill="#F7F7F7"/>
<path d="M260.15 283.328C259.527 285.041 258.982 286.481 258.437 287.921C257.192 291.035 255.946 294.149 254.662 297.263C254.545 297.574 254.506 297.964 254.272 298.119C253.65 298.548 252.949 298.859 252.287 299.209C252.132 298.47 251.587 297.613 251.82 297.03C253.144 293.526 254.623 290.101 256.063 286.637C256.608 285.313 257.075 283.99 257.776 282.744C258.009 282.316 258.865 281.888 259.294 282.005C259.683 282.161 259.916 282.939 260.15 283.328Z" fill="#F7F7F7"/>
<path d="M206.824 46.6698C206.629 49.5891 206.396 52.4695 206.045 55.3499C205.968 56.0116 205.228 56.5955 204.8 57.2183C204.372 56.5176 203.632 55.8559 203.632 55.1553C203.554 53.1702 203.749 51.1461 203.866 49.161C203.905 49.161 203.905 49.161 203.944 49.161C204.06 47.098 204.138 45.035 204.255 42.972C204.294 42.3103 204.294 41.6097 204.566 41.0648C204.839 40.5588 205.5 40.2084 205.968 39.7803C206.318 40.2474 206.941 40.7145 206.941 41.2205C207.019 43.0499 206.941 44.8793 206.824 46.6698Z" fill="#F7F7F7"/>
<path d="M156.884 282.277C156.768 282.9 156.495 283.523 156.261 284.146C155.717 283.912 154.938 283.796 154.666 283.406C153.731 281.849 152.953 280.214 152.213 278.58C150.968 275.933 149.761 273.286 148.516 270.639C148.01 269.549 148.165 268.771 150.073 267.759C150.384 268.382 150.695 269.043 151.007 269.666C152.875 273.597 154.704 277.529 156.534 281.421C156.69 281.694 156.962 282.005 156.884 282.277Z" fill="#F7F7F7"/>
<path d="M218.657 52.7421C217.762 57.2962 216.75 61.8503 215.66 66.3655C215.543 66.8326 214.687 67.1051 214.142 67.4554C213.752 66.8715 213.402 66.2877 213.052 65.8206C214.103 61.1108 215.076 56.6734 216.166 52.3139C216.282 51.8079 217.217 51.4576 217.762 51.0684C218.112 51.6133 218.735 52.2361 218.657 52.7421Z" fill="#F7F7F7"/>
<path d="M191.916 77.887C191.799 78.4709 191.137 78.899 190.709 79.405C190.242 78.9379 189.425 78.5098 189.386 78.0427C189.036 73.6053 188.763 69.168 188.568 64.6917C188.53 64.1857 189.269 63.6408 189.619 63.1348C190.087 63.6019 190.904 64.03 190.982 64.575C191.41 67.8835 191.682 71.231 191.955 74.0335C191.955 75.7072 192.111 76.836 191.916 77.887Z" fill="#F7F7F7"/>
<path d="M199.117 209.684C199.078 214.004 198.922 218.364 198.65 222.684C198.611 223.268 197.833 223.813 197.365 224.358C196.898 223.735 196.042 223.19 196.003 222.568C195.847 220.31 195.925 218.052 195.925 215.795H196.353C196.353 213.771 196.237 211.747 196.431 209.761C196.509 208.983 197.326 208.243 197.794 207.504C198.261 208.243 199.117 208.944 199.117 209.684Z" fill="#F7F7F7"/>
<path d="M255.051 182.359C254.233 184.5 253.533 186.368 252.832 188.236C252.054 190.299 251.392 192.401 250.458 194.386C250.146 195.048 249.212 195.359 248.551 195.865C248.356 195.087 247.85 194.153 248.045 193.491C249.212 189.988 250.536 186.563 251.82 183.137C252.015 182.67 252.17 182.086 252.56 181.775C252.988 181.386 253.688 180.957 254.117 181.074C254.545 181.191 254.778 181.969 255.051 182.359Z" fill="#F7F7F7"/>
<path d="M174.205 68.9731C173.544 68.5449 172.493 68.2724 172.22 67.6496C170.702 64.2243 169.34 60.7211 168.055 57.218C167.861 56.6341 168.328 55.8167 168.484 55.1161C168.717 55.1161 168.99 55.0771 169.223 55.0771C169.651 55.5832 170.274 55.9724 170.508 56.5563C171.909 59.8648 173.31 63.2123 174.517 66.5987C174.828 67.2604 174.361 68.1946 174.205 68.9731Z" fill="#F7F7F7"/>
<path d="M218.306 233.233C217.684 236.463 216.944 239.694 216.088 242.886C216.01 243.236 214.92 243.742 214.609 243.586C214.142 243.353 213.908 242.574 213.635 242.146C214.414 238.838 215.076 235.802 215.893 232.805C216.01 232.376 216.905 231.792 217.333 231.87C217.723 231.948 218.384 232.843 218.306 233.233Z" fill="#F7F7F7"/>
<path d="M243.724 34.8372C243.374 35.6936 243.14 36.3553 242.829 36.978C241.739 39.041 240.727 41.1429 239.481 43.0891C239.092 43.673 238.119 43.9065 237.379 44.2569C237.301 43.5173 236.873 42.5831 237.185 41.9993C238.391 39.5081 239.715 37.0559 241.116 34.6815C241.389 34.2144 242.206 33.942 242.829 33.8252C243.062 33.8252 243.451 34.5258 243.724 34.8372Z" fill="#F7F7F7"/>
<path d="M228.427 212.059C228.466 212.448 227.532 213.226 227.337 213.148C226.753 212.876 226.013 212.37 225.936 211.864C225.624 210.073 225.546 208.244 225.391 206.454C225.352 206.454 225.352 206.454 225.313 206.454C225.313 205.364 225.196 204.235 225.352 203.184C225.43 202.678 225.975 202.055 226.442 201.899C226.753 201.783 227.648 202.444 227.687 202.795C228.037 205.87 228.271 208.945 228.427 212.059Z" fill="#F7F7F7"/>
<path d="M139.174 282.317C138.512 282.472 137.539 282.978 137.228 282.745C134.853 280.877 132.557 278.853 130.338 276.79C130.066 276.556 130.182 275.661 130.377 275.194C130.455 274.96 131.35 274.765 131.545 274.921C133.997 276.984 136.41 279.125 138.823 281.266C139.018 281.344 138.979 281.616 139.174 282.317Z" fill="#F7F7F7"/>
<path d="M263.108 183.06C262.991 183.566 262.991 183.916 262.797 184.189C261.24 186.407 259.722 188.665 258.087 190.845C257.814 191.195 256.958 191.156 256.413 191.273C256.296 190.689 255.946 189.911 256.18 189.56C257.659 187.225 259.216 184.928 260.889 182.671C261.162 182.32 261.902 182.204 262.446 182.243C262.68 182.243 262.914 182.787 263.108 183.06Z" fill="#F7F7F7"/>
<path d="M215.115 278.774C213.83 280.798 212.468 282.783 210.95 284.613C210.561 285.08 209.549 285.041 208.848 285.235C208.887 284.496 208.692 283.601 209.043 283.056C210.171 281.226 211.456 279.553 212.74 277.84C213.091 277.373 213.636 277.022 213.986 276.75C215.543 277.022 215.699 277.879 215.115 278.774Z" fill="#F7F7F7"/>
<path d="M56.7716 242.302C56.6937 242.691 55.9542 242.925 55.4872 243.275C53.5799 242.497 51.7504 241.835 49.9988 241.056C47.3131 239.928 44.6273 238.838 42.0194 237.514C41.3188 237.164 40.9295 236.191 40.4235 235.49C41.2798 235.374 42.2919 234.868 42.9925 235.179C47.0406 236.736 51.0109 238.487 54.9811 240.161C55.4093 240.356 55.8374 240.55 56.1099 240.862C56.4213 241.29 56.8494 241.874 56.7716 242.302Z" fill="#F7F7F7"/>
<path d="M54.2804 209.528C53.9301 209.956 53.5019 210.812 53.1905 210.734C52.6067 210.657 51.8283 210.189 51.5947 209.683C50.933 208.088 50.4658 206.375 49.9598 204.701C49.1424 202.054 48.2861 199.408 47.6633 196.683C47.5076 195.982 48.0136 195.087 48.2082 194.27C48.87 194.814 49.9209 195.243 50.1544 195.904C51.5946 200.381 52.8792 204.857 54.2804 209.528Z" fill="#F7F7F7"/>
<path d="M44.3547 201.549C44.1601 201.782 43.7709 202.483 43.5763 202.444C42.9146 202.249 42.0582 201.977 41.7468 201.432C40.3067 199.135 38.9832 196.761 37.6598 194.387C37.037 193.336 36.3753 192.285 35.9471 191.156C35.7525 190.689 35.9472 189.755 36.2975 189.521C36.6478 189.288 37.7376 189.443 37.9323 189.794C40.112 193.375 42.1361 197.034 44.238 200.692C44.2769 200.848 44.2769 201.082 44.3547 201.549Z" fill="#F7F7F7"/>
<path d="M90.441 255.147C89.8571 256.042 89.6626 256.471 89.3512 256.782C86.9379 259.468 84.4856 262.115 82.0334 264.8C81.9556 264.917 81.8388 265.034 81.761 265.073C81.0214 265.19 80.3207 265.267 79.5812 265.384C79.6979 264.722 79.5423 263.827 79.8926 263.399C81.722 261.219 83.6682 259.156 85.6144 257.054C86.3929 256.198 87.1714 255.264 88.1445 254.68C88.5337 254.408 89.4289 254.914 90.441 255.147Z" fill="#F7F7F7"/>
<path d="M102.741 228.562C102.469 228.99 102.079 229.496 101.729 230.041C101.184 229.613 100.25 229.302 100.133 228.796C99.3158 225.409 98.6151 222.023 98.0312 218.598C97.9534 218.092 98.6151 217.469 98.9265 216.924C99.4325 217.274 100.25 217.508 100.367 217.936C101.184 221.322 101.924 224.786 102.741 228.562Z" fill="#F7F7F7"/>
<path d="M81.4884 255.537C80.9824 256.043 80.5153 256.86 79.9314 256.977C77.0121 257.483 74.054 257.794 71.1347 258.145C71.1347 258.106 71.1347 258.067 71.1347 258.028C70.6676 258.028 70.1615 258.145 69.8112 257.989C69.3441 257.794 68.7213 257.366 68.6824 256.977C68.6435 256.549 69.1495 255.77 69.5387 255.692C73.0419 255.147 76.5451 254.68 80.0872 254.33C80.4764 254.33 80.9824 255.147 81.4884 255.537Z" fill="#F7F7F7"/>
<path d="M79.075 218.87C78.8026 219.182 78.2965 219.727 77.7905 220.272C77.3234 219.766 76.545 219.298 76.4282 218.715C75.9222 216.184 75.533 213.615 75.3773 211.047C75.3383 210.307 76.1168 209.528 76.545 208.75C77.0899 209.373 77.9852 209.957 78.1019 210.696C78.569 213.226 78.7637 215.834 79.075 218.87Z" fill="#F7F7F7"/>
<path d="M51.9061 162.703C51.0887 165.817 50.1545 168.892 49.1814 171.967C49.0646 172.317 48.1694 172.823 47.858 172.667C47.3909 172.434 47.1184 171.772 46.8459 171.344C47.819 168.074 48.7143 165.038 49.6874 162.041C49.8042 161.691 50.6995 161.34 51.0887 161.418C51.439 161.574 51.9839 162.352 51.9061 162.703Z" fill="#F7F7F7"/>
<path d="M45.6782 155.346C45.4836 157.253 45.3668 159.199 45.0165 161.107C44.8997 161.691 44.0824 162.119 43.6153 162.625C43.265 162.08 42.5643 161.535 42.6032 160.99C42.72 158.226 42.9147 155.463 43.2261 152.738C43.265 152.31 44.0045 151.96 44.3938 151.57C44.783 151.998 45.4057 152.388 45.4836 152.894C45.6782 153.672 45.5225 154.567 45.5225 155.385C45.6004 155.346 45.6393 155.346 45.6782 155.346Z" fill="#F7F7F7"/>
<path d="M358.355 139.153C356.254 142.384 354.035 145.575 351.816 148.728C351.466 149.234 350.882 149.546 350.532 149.818C349.053 149.701 348.508 148.962 349.169 147.989C351.466 144.486 353.84 141.06 356.331 137.674C356.643 137.246 357.655 137.285 358.355 137.129C358.317 137.791 358.667 138.686 358.355 139.153Z" fill="#F7F7F7"/>
<path d="M325.581 129.344C325.62 129.344 325.62 129.344 325.659 129.344C325.465 131.719 325.387 134.132 325.075 136.507C324.959 137.246 324.219 137.908 323.752 138.608C323.324 137.908 322.545 137.246 322.584 136.584C322.701 132.887 322.935 129.189 323.285 125.53C323.363 124.907 324.18 124.362 324.647 123.778C324.997 124.401 325.62 125.024 325.698 125.686C325.815 126.892 325.62 128.138 325.581 129.344Z" fill="#F7F7F7"/>
<path d="M333.639 119.848C333.327 120.315 332.899 120.977 332.51 121.599C331.965 121.016 330.992 120.51 330.875 119.887C330.291 116.656 329.824 113.386 329.513 110.117C329.435 109.572 330.174 108.949 330.525 108.365C331.031 108.832 331.887 109.26 332.004 109.805C332.627 112.958 333.094 116.228 333.639 119.848Z" fill="#F7F7F7"/>
<path d="M315.928 173.757C315.656 174.419 315.539 174.847 315.344 175.236C313.865 177.805 312.386 180.374 310.829 182.904C310.323 183.722 309.661 184.812 308.61 183.916C308.182 183.566 308.221 182.165 308.571 181.542C310.012 178.856 311.569 176.287 313.203 173.718C313.515 173.212 314.41 172.979 315.072 172.823C315.305 172.784 315.656 173.446 315.928 173.757Z" fill="#F7F7F7"/>
<path d="M345.277 171.149C345.082 171.811 345.043 172.784 344.615 173.134C342.319 174.847 339.944 176.404 337.57 178C336.986 178.389 336.363 178.7 335.624 179.128C335.157 178.817 334.573 178.622 334.456 178.272C334.339 177.883 334.495 177.104 334.806 176.91C337.765 174.808 340.762 172.745 343.798 170.799C344.07 170.565 344.771 170.993 345.277 171.149Z" fill="#F7F7F7"/>
<path d="M321.961 130.201C321.611 130.591 321.144 131.135 320.638 131.68C320.171 131.174 319.431 130.707 319.314 130.123C318.77 127.671 318.303 125.18 318.03 122.689C317.952 122.027 318.653 121.327 319.003 120.626C319.587 121.132 320.521 121.56 320.677 122.144C321.183 124.635 321.494 127.243 321.961 130.201Z" fill="#F7F7F7"/>
<path d="M345.432 91.316C344.81 93.8071 344.07 96.2593 343.253 98.7115C343.136 99.0618 342.202 99.4511 341.89 99.2954C341.423 99.1008 341.19 98.4001 340.801 97.8941C341.579 95.403 342.28 93.0286 343.136 90.7321C343.292 90.3429 344.148 89.8368 344.42 89.9536C344.887 90.1872 345.51 90.9656 345.432 91.316Z" fill="#F7F7F7"/>
<path d="M351.621 174.731C350.882 175.665 350.648 176.288 350.181 176.521C348.391 177.416 346.6 178.312 344.732 178.973C344.187 179.168 343.409 178.701 342.708 178.545C343.058 177.961 343.253 177.066 343.759 176.794C345.51 175.821 347.34 175.003 349.169 174.303C349.753 174.147 350.532 174.536 351.621 174.731Z" fill="#F7F7F7"/>
<path d="M244.48 90.4235C233.485 86.8974 222.529 91.2667 217.828 101.653C217.594 102.19 217.05 102.573 216.662 103.072C216.235 102.65 215.691 102.305 215.419 101.807C212.388 96.326 208.075 92.3782 201.937 90.3469C192.768 87.3573 183.365 90.0403 177.848 97.4758C176.566 99.2005 175.595 101.155 174.352 103.225C173.846 102.573 173.419 102.19 173.147 101.73C169.961 95.7894 165.144 91.765 158.539 90.0403C150.302 87.8939 142.842 89.5037 137.092 95.8277C127.185 106.713 128.855 123.998 141.56 132.316C152.361 139.368 167.436 135.957 173.225 124.497C173.575 123.807 174.08 123.194 174.74 122.235C179.713 130.437 186.007 136.033 195.992 135.88C205.861 135.727 212.738 131.089 216.662 122.235C219.148 125.187 221.13 128.023 223.655 130.361C233.019 139.061 249.143 137.375 256.33 127.026C265.655 113.727 258.933 95.0995 244.48 90.4235ZM160.209 129.326C153.954 131.664 146.222 129.633 141.405 124.535C136.548 119.399 134.489 113.497 136.393 106.598C138.685 98.3957 148.282 93.2214 156.674 95.4828C164.522 97.5908 170.661 105.563 170.622 113.573C170.583 120.587 166.309 127.026 160.209 129.326ZM206.521 126.796C201.626 131.012 194.477 131.587 188.028 127.946C181.112 124.037 176.994 116.716 178.198 108.322C179.286 100.504 187.717 94.6779 194.749 95.0228C201.237 95.0228 205.861 98.2807 209.396 103.302C214.797 110.929 213.593 120.741 206.521 126.796ZM244.519 129.364C238.07 131.779 230.416 129.556 225.676 124.267C221.052 119.131 219.382 113.382 220.975 106.559C222.762 98.9322 233.33 93.0298 241.722 95.6744C249.143 97.9741 255.748 106.253 255.126 113.727C255.437 121.201 250.347 127.18 244.519 129.364Z" fill="#F7F7F7"/>
<path d="M158.363 117.663C158.402 119.337 157.001 120.504 155.25 120.543C153.576 120.582 152.369 119.648 151.98 118.013C151.552 115.989 151.318 113.965 151.007 111.902C151.046 111.902 151.124 111.902 151.162 111.902C151.162 111.24 151.124 110.618 151.162 109.956C151.318 108.282 151.98 106.92 153.809 106.569C155.678 106.219 157.04 107.465 157.351 108.905C158.013 111.785 158.325 114.743 158.363 117.663Z" fill="#F7F7F7"/>
<path d="M201.375 114.744C201.219 114.783 201.063 114.861 200.869 114.939C200.83 115.912 200.869 116.885 200.674 117.819C200.363 119.493 199.195 120.427 197.599 120.544C196.159 120.661 194.757 120.038 194.485 118.52C193.979 115.484 193.551 112.409 193.551 109.373C193.551 108.438 194.874 107.037 195.886 106.765C196.743 106.492 198.533 107.232 198.922 108.01C200.012 110.073 200.557 112.448 201.375 114.744Z" fill="#F7F7F7"/>
<path d="M243.802 115.289C243.685 115.328 243.607 115.328 243.49 115.367V115.756C243.451 118.598 242.089 120.466 240.026 120.583C238.002 120.7 236.484 118.948 236.212 116.029C236.017 114.161 235.822 112.292 235.744 110.424C235.706 108.478 236.873 106.921 238.391 106.57C239.948 106.22 241.466 107.115 242.206 109.139C242.906 111.124 243.257 113.226 243.802 115.289Z" fill="#F7F7F7"/>
</svg>
