<svg width="26" height="26" viewBox="0 0 26 26" fill="none" xmlns="http://www.w3.org/2000/svg">
<mask id="path-1-inside-1_100_1321" fill="white">
<path d="M8.10286 13.129L6.42964 14.2487V12.0093L8.10286 13.129ZM12.2042 10.3864V7.2664L6.97061 10.7638L9.29803 12.3238L12.2042 10.3864ZM18.7838 10.7638L13.5377 7.2664V10.3864L16.4438 12.3238L18.7838 10.7638ZM6.97061 15.4941L12.2042 18.9916V15.8716L9.29803 13.9341L6.97061 15.4941ZM13.5377 15.8716V18.9916L18.7838 15.4941L16.4438 13.9341L13.5377 15.8716ZM12.8709 11.5438L10.5058 13.129L12.8709 14.7141L15.2361 13.129L12.8709 11.5438ZM25.4516 13.129C25.4516 20.0483 19.7903 25.7096 12.8709 25.7096C5.95157 25.7096 0.290283 20.0483 0.290283 13.129C0.290283 6.20963 5.95157 0.54834 12.8709 0.54834C19.7903 0.54834 25.4516 6.20963 25.4516 13.129ZM20.6458 10.7638V10.6758L20.6332 10.6129L20.6206 10.55C20.608 10.5374 20.608 10.5248 20.5954 10.4996L20.5829 10.4745L20.5577 10.4241L20.5451 10.399L20.52 10.3612L20.4948 10.3235L20.4571 10.2858L20.4193 10.2606V10.2354L20.369 10.2103L20.3564 10.1977L13.2483 5.46737C13.1387 5.39349 13.0095 5.35402 12.8772 5.35402C12.745 5.35402 12.6158 5.39349 12.5061 5.46737L5.38544 10.1977V10.2103L5.32254 10.2354V10.2606L5.2848 10.2858L5.24706 10.3235L5.23448 10.3612L5.19673 10.399L5.18415 10.4241L5.15899 10.4745L5.14641 10.4996L5.12125 10.55V10.6129H5.10867L5.09609 10.6758V15.5822L5.10867 15.6451H5.12125V15.708C5.13383 15.7206 5.13383 15.7332 5.14641 15.7583L5.15899 15.7835L5.18415 15.8338L5.19673 15.859L5.2219 15.8967L5.24706 15.9345L5.2848 15.9722L5.32254 15.9974V16.0225L5.37286 16.0477L5.38544 16.0603L12.5061 20.8032C12.6067 20.8787 12.7451 20.9038 12.8709 20.9038C12.9967 20.9038 13.1351 20.8661 13.2483 20.8032L20.3564 16.0603L20.369 16.0477L20.4193 16.0225V15.9974L20.4571 15.9722L20.4948 15.9345L20.52 15.8967L20.5451 15.859L20.5577 15.8338L20.5829 15.7835L20.5954 15.7583L20.6206 15.708V15.6451H20.6332L20.6458 15.5822V10.7638ZM19.3122 14.2487V12.0093L17.639 13.129L19.3122 14.2487Z"/>
</mask>
<path d="M8.10286 13.129L6.42964 14.2487V12.0093L8.10286 13.129ZM12.2042 10.3864V7.2664L6.97061 10.7638L9.29803 12.3238L12.2042 10.3864ZM18.7838 10.7638L13.5377 7.2664V10.3864L16.4438 12.3238L18.7838 10.7638ZM6.97061 15.4941L12.2042 18.9916V15.8716L9.29803 13.9341L6.97061 15.4941ZM13.5377 15.8716V18.9916L18.7838 15.4941L16.4438 13.9341L13.5377 15.8716ZM12.8709 11.5438L10.5058 13.129L12.8709 14.7141L15.2361 13.129L12.8709 11.5438ZM25.4516 13.129C25.4516 20.0483 19.7903 25.7096 12.8709 25.7096C5.95157 25.7096 0.290283 20.0483 0.290283 13.129C0.290283 6.20963 5.95157 0.54834 12.8709 0.54834C19.7903 0.54834 25.4516 6.20963 25.4516 13.129ZM20.6458 10.7638V10.6758L20.6332 10.6129L20.6206 10.55C20.608 10.5374 20.608 10.5248 20.5954 10.4996L20.5829 10.4745L20.5577 10.4241L20.5451 10.399L20.52 10.3612L20.4948 10.3235L20.4571 10.2858L20.4193 10.2606V10.2354L20.369 10.2103L20.3564 10.1977L13.2483 5.46737C13.1387 5.39349 13.0095 5.35402 12.8772 5.35402C12.745 5.35402 12.6158 5.39349 12.5061 5.46737L5.38544 10.1977V10.2103L5.32254 10.2354V10.2606L5.2848 10.2858L5.24706 10.3235L5.23448 10.3612L5.19673 10.399L5.18415 10.4241L5.15899 10.4745L5.14641 10.4996L5.12125 10.55V10.6129H5.10867L5.09609 10.6758V15.5822L5.10867 15.6451H5.12125V15.708C5.13383 15.7206 5.13383 15.7332 5.14641 15.7583L5.15899 15.7835L5.18415 15.8338L5.19673 15.859L5.2219 15.8967L5.24706 15.9345L5.2848 15.9722L5.32254 15.9974V16.0225L5.37286 16.0477L5.38544 16.0603L12.5061 20.8032C12.6067 20.8787 12.7451 20.9038 12.8709 20.9038C12.9967 20.9038 13.1351 20.8661 13.2483 20.8032L20.3564 16.0603L20.369 16.0477L20.4193 16.0225V15.9974L20.4571 15.9722L20.4948 15.9345L20.52 15.8967L20.5451 15.859L20.5577 15.8338L20.5829 15.7835L20.5954 15.7583L20.6206 15.708V15.6451H20.6332L20.6458 15.5822V10.7638ZM19.3122 14.2487V12.0093L17.639 13.129L19.3122 14.2487Z" fill="white"/>
<path d="M6.42964 14.2487H5.42964V16.1211L6.98578 15.0798L6.42964 14.2487ZM6.42964 12.0093L6.98578 11.1782L5.42964 10.1369V12.0093H6.42964ZM12.2042 7.2664H13.2042V5.3954L11.6485 6.43497L12.2042 7.2664ZM6.97061 10.7638L6.41498 9.93239L5.17268 10.7626L6.41384 11.5945L6.97061 10.7638ZM9.29803 12.3238L8.74125 13.1545L9.29653 13.5267L9.85273 13.1559L9.29803 12.3238ZM13.5377 7.2664L14.0924 6.43435L12.5377 5.39789V7.2664H13.5377ZM13.5377 10.3864H12.5377V10.9216L12.983 11.2185L13.5377 10.3864ZM16.4438 12.3238L15.8891 13.1559L16.4438 13.5257L16.9985 13.1559L16.4438 12.3238ZM12.2042 18.9916L11.6485 19.823L13.2042 20.8626V18.9916H12.2042ZM12.2042 15.8716H13.2042V15.3364L12.7589 15.0395L12.2042 15.8716ZM9.29803 13.9341L9.85273 13.1021L9.29653 12.7313L8.74125 13.1035L9.29803 13.9341ZM13.5377 18.9916H12.5377V20.8601L14.0924 19.8236L13.5377 18.9916ZM18.7838 15.4941L19.3385 16.3262L20.5866 15.4941L19.3385 14.6621L18.7838 15.4941ZM16.4438 13.9341L16.9985 13.1021L16.4438 12.7323L15.8891 13.1021L16.4438 13.9341ZM12.8709 11.5438L13.4277 10.7131L12.8709 10.34L12.3142 10.7131L12.8709 11.5438ZM10.5058 13.129L9.94903 12.2983L8.70959 13.129L9.94903 13.9597L10.5058 13.129ZM12.8709 14.7141L12.3142 15.5448L12.8709 15.918L13.4277 15.5448L12.8709 14.7141ZM15.2361 13.129L15.7928 13.9597L17.0323 13.129L15.7928 12.2983L15.2361 13.129ZM20.6458 10.6758H21.6458V10.5767L21.6263 10.4796L20.6458 10.6758ZM20.6206 10.55L21.6012 10.3538L21.5418 10.0569L21.3277 9.84285L20.6206 10.55ZM20.5954 10.4996L21.4899 10.0524L21.4899 10.0524L20.5954 10.4996ZM20.5829 10.4745L19.6884 10.9217L19.6884 10.9217L20.5829 10.4745ZM20.5577 10.4241L21.4521 9.97696L21.4521 9.97693L20.5577 10.4241ZM20.5451 10.399L21.4396 9.95177L21.4117 9.89608L21.3772 9.84427L20.5451 10.399ZM20.4948 10.3235L21.3268 9.76879L21.2719 9.68642L21.2019 9.61642L20.4948 10.3235ZM20.4571 10.2858L21.1642 9.57867L21.0942 9.50864L21.0117 9.4537L20.4571 10.2858ZM20.4193 10.2606H19.4193V10.7958L19.8646 11.0927L20.4193 10.2606ZM20.4193 10.2354H21.4193V9.61739L20.8665 9.341L20.4193 10.2354ZM20.369 10.2103L19.6618 10.9173L19.7766 11.0321L19.9218 11.1047L20.369 10.2103ZM20.3564 10.1977L21.0636 9.49065L20.9932 9.42031L20.9104 9.36519L20.3564 10.1977ZM13.2483 5.46737L12.6896 6.29675L12.6943 6.29988L13.2483 5.46737ZM12.8772 5.35402V6.35402V5.35402ZM12.5061 5.46737L13.0594 6.30034L13.0648 6.29673L12.5061 5.46737ZM5.38544 10.1977L4.8321 9.36474L4.38544 9.66146V10.1977H5.38544ZM5.38544 10.2103L5.75683 11.1388L6.38544 10.8873V10.2103H5.38544ZM5.32254 10.2354L4.95116 9.30696L4.32254 9.5584V10.2354H5.32254ZM5.32254 10.2606L5.87723 11.0927L6.32254 10.7958V10.2606H5.32254ZM5.2848 10.2858L4.73011 9.4537L4.64771 9.50863L4.57768 9.57866L5.2848 10.2858ZM5.24706 10.3235L4.53994 9.61641L4.37303 9.78332L4.29838 10.0073L5.24706 10.3235ZM5.23448 10.3612L5.94158 11.0683L6.1085 10.9014L6.18316 10.6775L5.23448 10.3612ZM5.19673 10.399L4.48963 9.69188L4.37488 9.80663L4.30231 9.95177L5.19673 10.399ZM5.12125 10.55L4.22682 10.1027L4.12125 10.3139V10.55H5.12125ZM5.12125 10.6129V11.6129H6.12125V10.6129H5.12125ZM5.10867 10.6129V9.61286H4.28886L4.12809 10.4167L5.10867 10.6129ZM5.09609 10.6758L4.11551 10.4796L4.09609 10.5767V10.6758H5.09609ZM5.09609 15.5822H4.09609V15.6812L4.11551 15.7783L5.09609 15.5822ZM5.10867 15.6451L4.12809 15.8412L4.28886 16.6451H5.10867V15.6451ZM5.12125 15.6451H6.12125V14.6451H5.12125V15.6451ZM5.12125 15.708H4.12125V16.1222L4.41414 16.4151L5.12125 15.708ZM5.19673 15.859L4.30231 16.3062L4.33015 16.3619L4.36469 16.4137L5.19673 15.859ZM5.24706 15.9345L4.41501 16.4892L4.46993 16.5716L4.53994 16.6416L5.24706 15.9345ZM5.2848 15.9722L4.57768 16.6793L4.64771 16.7493L4.73011 16.8043L5.2848 15.9722ZM5.32254 15.9974H6.32254V15.4622L5.87723 15.1653L5.32254 15.9974ZM5.32254 16.0225H4.32254V16.6406L4.87534 16.917L5.32254 16.0225ZM5.37286 16.0477L6.07997 15.3406L5.96522 15.2258L5.82007 15.1533L5.37286 16.0477ZM5.38544 16.0603L4.67834 16.7674L4.7485 16.8375L4.83108 16.8926L5.38544 16.0603ZM12.5061 20.8032L13.1061 20.0032L13.0837 19.9864L13.0605 19.9709L12.5061 20.8032ZM13.2483 20.8032L13.734 21.6773L13.7696 21.6576L13.8034 21.635L13.2483 20.8032ZM20.3564 16.0603L20.9115 16.8921L20.9937 16.8372L21.0636 16.7673L20.3564 16.0603ZM20.369 16.0477L19.9218 15.1533L19.7766 15.2259L19.6618 15.3407L20.369 16.0477ZM20.4193 16.0225L20.8665 16.917L21.4193 16.6406V16.0225H20.4193ZM20.4193 15.9974L19.8646 15.1653L19.4193 15.4622V15.9974H20.4193ZM20.4571 15.9722L21.0117 16.8043L21.0942 16.7493L21.1642 16.6793L20.4571 15.9722ZM20.4948 15.9345L21.2019 16.6416L21.2719 16.5716L21.3268 16.4892L20.4948 15.9345ZM20.5451 15.859L21.3772 16.4137L21.4117 16.3619L21.4396 16.3062L20.5451 15.859ZM20.5577 15.8338L21.4521 16.281L21.4521 16.281L20.5577 15.8338ZM20.5829 15.7835L19.6884 15.3363L19.6884 15.3363L20.5829 15.7835ZM20.5954 15.7583L21.4899 16.2056L21.4899 16.2056L20.5954 15.7583ZM20.6206 15.708L21.515 16.1552L21.6206 15.9441V15.708H20.6206ZM20.6206 15.6451V14.6451H19.6206V15.6451H20.6206ZM20.6332 15.6451V16.6451H21.453L21.6138 15.8412L20.6332 15.6451ZM20.6458 15.5822L21.6263 15.7783L21.6458 15.6812V15.5822H20.6458ZM19.3122 12.0093H20.3122V10.1369L18.7561 11.1782L19.3122 12.0093ZM17.639 13.129L17.0829 12.2979L15.8409 13.129L17.0829 13.9601L17.639 13.129ZM7.54672 12.2979L5.8735 13.4176L6.98578 15.0798L8.65901 13.9601L7.54672 12.2979ZM7.42964 14.2487V12.0093H5.42964V14.2487H7.42964ZM5.8735 12.8404L7.54672 13.9601L8.65901 12.2979L6.98578 11.1782L5.8735 12.8404ZM13.2042 10.3864V7.2664H11.2042V10.3864H13.2042ZM11.6485 6.43497L6.41498 9.93239L7.52623 11.5953L12.7598 8.09784L11.6485 6.43497ZM6.41384 11.5945L8.74125 13.1545L9.8548 11.4932L7.52738 9.93316L6.41384 11.5945ZM9.85273 13.1559L12.7589 11.2185L11.6495 9.55435L8.74333 11.4918L9.85273 13.1559ZM19.3385 9.93177L14.0924 6.43435L12.983 8.09845L18.2291 11.5959L19.3385 9.93177ZM12.5377 7.2664V10.3864H14.5377V7.2664H12.5377ZM12.983 11.2185L15.8891 13.1559L16.9985 11.4918L14.0924 9.55435L12.983 11.2185ZM16.9985 13.1559L19.3385 11.5959L18.2291 9.93177L15.8891 11.4918L16.9985 13.1559ZM6.41498 16.3256L11.6485 19.823L12.7598 18.1601L7.52623 14.6627L6.41498 16.3256ZM13.2042 18.9916V15.8716H11.2042V18.9916H13.2042ZM12.7589 15.0395L9.85273 13.1021L8.74333 14.7662L11.6495 16.7036L12.7589 15.0395ZM8.74125 13.1035L6.41384 14.6635L7.52738 16.3248L9.8548 14.7648L8.74125 13.1035ZM12.5377 15.8716V18.9916H14.5377V15.8716H12.5377ZM14.0924 19.8236L19.3385 16.3262L18.2291 14.6621L12.983 18.1595L14.0924 19.8236ZM19.3385 14.6621L16.9985 13.1021L15.8891 14.7662L18.2291 16.3262L19.3385 14.6621ZM15.8891 13.1021L12.983 15.0395L14.0924 16.7036L16.9985 14.7662L15.8891 13.1021ZM12.3142 10.7131L9.94903 12.2983L11.0625 13.9597L13.4277 12.3745L12.3142 10.7131ZM9.94903 13.9597L12.3142 15.5448L13.4277 13.8835L11.0625 12.2983L9.94903 13.9597ZM13.4277 15.5448L15.7928 13.9597L14.6794 12.2983L12.3142 13.8835L13.4277 15.5448ZM15.7928 12.2983L13.4277 10.7131L12.3142 12.3745L14.6794 13.9597L15.7928 12.2983ZM24.4516 13.129C24.4516 19.4961 19.238 24.7096 12.8709 24.7096V26.7096C20.3426 26.7096 26.4516 20.6006 26.4516 13.129H24.4516ZM12.8709 24.7096C6.50386 24.7096 1.29028 19.4961 1.29028 13.129H-0.709717C-0.709717 20.6006 5.39929 26.7096 12.8709 26.7096V24.7096ZM1.29028 13.129C1.29028 6.76191 6.50386 1.54834 12.8709 1.54834V-0.45166C5.39929 -0.45166 -0.709717 5.65735 -0.709717 13.129H1.29028ZM12.8709 1.54834C19.238 1.54834 24.4516 6.76191 24.4516 13.129H26.4516C26.4516 5.65735 20.3426 -0.45166 12.8709 -0.45166V1.54834ZM21.6458 10.7638V10.6758H19.6458V10.7638H21.6458ZM21.6263 10.4796L21.6138 10.4167L19.6526 10.809L19.6652 10.8719L21.6263 10.4796ZM21.6138 10.4167L21.6012 10.3538L19.64 10.7461L19.6526 10.809L21.6138 10.4167ZM21.3277 9.84285C21.3871 9.90226 21.4361 9.96701 21.4751 10.0333C21.5106 10.0936 21.5307 10.1437 21.5365 10.1581C21.5539 10.2017 21.521 10.1146 21.4899 10.0524L19.701 10.9468C19.6825 10.9098 19.6558 10.8416 19.6796 10.9009C19.6885 10.9232 19.7118 10.9803 19.7512 11.0474C19.7941 11.1203 19.8478 11.1914 19.9135 11.2571L21.3277 9.84285ZM21.4899 10.0524L21.4773 10.0272L19.6884 10.9217L19.701 10.9469L21.4899 10.0524ZM21.4773 10.0273L21.4521 9.97696L19.6633 10.8713L19.6884 10.9217L21.4773 10.0273ZM21.4521 9.97693L21.4396 9.95177L19.6507 10.8462L19.6633 10.8714L21.4521 9.97693ZM21.3772 9.84427L21.352 9.80653L19.6879 10.916L19.7131 10.9537L21.3772 9.84427ZM21.352 9.80653L21.3268 9.76879L19.6628 10.8782L19.6879 10.916L21.352 9.80653ZM21.2019 9.61642L21.1642 9.57867L19.7499 10.9928L19.7877 11.0306L21.2019 9.61642ZM21.0117 9.4537L20.974 9.42854L19.8646 11.0927L19.9024 11.1178L21.0117 9.4537ZM21.4193 10.2606V10.2354H19.4193V10.2606H21.4193ZM20.8665 9.341L20.8162 9.31584L19.9218 11.1047L19.9721 11.1299L20.8665 9.341ZM21.0762 9.50324L21.0636 9.49065L19.6492 10.9047L19.6618 10.9173L21.0762 9.50324ZM20.9104 9.36519L13.8024 4.63487L12.6943 6.29988L19.8024 11.0302L20.9104 9.36519ZM13.8071 4.63801C13.5323 4.45291 13.2085 4.35402 12.8772 4.35402V6.35402C12.8104 6.35402 12.7451 6.33408 12.6896 6.29673L13.8071 4.63801ZM12.8772 4.35402C12.5459 4.35402 12.2221 4.45291 11.9474 4.63801L13.0648 6.29673C13.0094 6.33408 12.9441 6.35402 12.8772 6.35402V4.35402ZM11.9527 4.63442L4.8321 9.36474L5.93879 11.0306L13.0594 6.30033L11.9527 4.63442ZM4.38544 10.1977V10.2103H6.38544V10.1977H4.38544ZM5.01406 9.2818L4.95116 9.30696L5.69392 11.1639L5.75683 11.1388L5.01406 9.2818ZM4.32254 10.2354V10.2606H6.32254V10.2354H4.32254ZM4.76785 9.42854L4.73011 9.4537L5.83949 11.1178L5.87723 11.0927L4.76785 9.42854ZM4.57768 9.57866L4.53994 9.61641L5.95418 11.0306L5.99192 10.9929L4.57768 9.57866ZM4.29838 10.0073L4.2858 10.045L6.18316 10.6775L6.19574 10.6397L4.29838 10.0073ZM4.52737 9.65414L4.48963 9.69188L5.90384 11.1061L5.94158 11.0683L4.52737 9.65414ZM4.30231 9.95177L4.28973 9.97693L6.07858 10.8714L6.09116 10.8462L4.30231 9.95177ZM4.28973 9.97693L4.26457 10.0273L6.05342 10.9217L6.07858 10.8714L4.28973 9.97693ZM4.26457 10.0273L4.25199 10.0524L6.04084 10.9468L6.05342 10.9217L4.26457 10.0273ZM4.25199 10.0524L4.22682 10.1027L6.01568 10.9972L6.04084 10.9468L4.25199 10.0524ZM4.12125 10.55V10.6129H6.12125V10.55H4.12125ZM5.12125 9.61286H5.10867V11.6129H5.12125V9.61286ZM4.12809 10.4167L4.11551 10.4796L6.07667 10.8719L6.08925 10.809L4.12809 10.4167ZM4.09609 10.6758V15.5822H6.09609V10.6758H4.09609ZM4.11551 15.7783L4.12809 15.8412L6.08925 15.449L6.07667 15.3861L4.11551 15.7783ZM5.10867 16.6451H5.12125V14.6451H5.10867V16.6451ZM4.12125 15.6451V15.708H6.12125V15.6451H4.12125ZM4.41414 16.4151C4.35472 16.3557 4.30578 16.291 4.26679 16.2247C4.2313 16.1643 4.21112 16.1143 4.20535 16.0999C4.1879 16.0562 4.22089 16.1434 4.25199 16.2056L6.04084 15.3111C6.05935 15.3482 6.08605 15.4164 6.06231 15.3571C6.0534 15.3348 6.03008 15.2776 5.99065 15.2106C5.94773 15.1377 5.89407 15.0666 5.82836 15.0009L4.41414 16.4151ZM4.25199 16.2056L4.26457 16.2307L6.05342 15.3363L6.04084 15.3111L4.25199 16.2056ZM4.26457 16.2307L4.28973 16.281L6.07858 15.3866L6.05342 15.3363L4.26457 16.2307ZM4.28973 16.281L4.30231 16.3062L6.09116 15.4118L6.07858 15.3866L4.28973 16.281ZM4.36469 16.4137L4.38985 16.4514L6.05394 15.342L6.02878 15.3043L4.36469 16.4137ZM4.38985 16.4514L4.41501 16.4892L6.07911 15.3798L6.05394 15.342L4.38985 16.4514ZM4.53994 16.6416L4.57768 16.6793L5.99192 15.2651L5.95418 15.2274L4.53994 16.6416ZM4.73011 16.8043L4.76785 16.8294L5.87723 15.1653L5.83949 15.1402L4.73011 16.8043ZM4.32254 15.9974V16.0225H6.32254V15.9974H4.32254ZM4.87534 16.917L4.92566 16.9421L5.82007 15.1533L5.76975 15.1281L4.87534 16.917ZM4.66576 16.7548L4.67834 16.7674L6.09255 15.3532L6.07997 15.3406L4.66576 16.7548ZM4.83108 16.8926L11.9517 21.6355L13.0605 19.9709L5.93981 15.228L4.83108 16.8926ZM11.9061 21.6032C12.2561 21.8657 12.649 21.9038 12.8709 21.9038V19.9038C12.8711 19.9038 12.8889 19.9035 12.9216 19.9117C12.9533 19.9196 13.0245 19.942 13.1061 20.0032L11.9061 21.6032ZM12.8709 21.9038C13.1783 21.9038 13.4827 21.8169 13.734 21.6773L12.7627 19.929C12.7811 19.9188 12.7947 19.9141 12.8052 19.9112C12.8153 19.9085 12.8366 19.9038 12.8709 19.9038V21.9038ZM13.8034 21.635L20.9115 16.8921L19.8014 15.2285L12.6933 19.9714L13.8034 21.635ZM21.0636 16.7673L21.0762 16.7547L19.6618 15.3407L19.6492 15.3532L21.0636 16.7673ZM20.8162 16.9421L20.8665 16.917L19.9721 15.1281L19.9218 15.1533L20.8162 16.9421ZM21.4193 16.0225V15.9974H19.4193V16.0225H21.4193ZM20.974 16.8294L21.0117 16.8043L19.9024 15.1401L19.8646 15.1653L20.974 16.8294ZM21.1642 16.6793L21.2019 16.6416L19.7877 15.2274L19.7499 15.2651L21.1642 16.6793ZM21.3268 16.4892L21.352 16.4514L19.6879 15.342L19.6628 15.3798L21.3268 16.4892ZM21.352 16.4514L21.3772 16.4137L19.7131 15.3043L19.6879 15.342L21.352 16.4514ZM21.4396 16.3062L21.4521 16.281L19.6633 15.3866L19.6507 15.4118L21.4396 16.3062ZM21.4521 16.281L21.4773 16.2307L19.6884 15.3363L19.6633 15.3866L21.4521 16.281ZM21.4773 16.2307L21.4899 16.2056L19.701 15.3111L19.6884 15.3363L21.4773 16.2307ZM21.4899 16.2056L21.515 16.1552L19.7262 15.2608L19.701 15.3111L21.4899 16.2056ZM21.6206 15.708V15.6451H19.6206V15.708H21.6206ZM20.6206 16.6451H20.6332V14.6451H20.6206V16.6451ZM21.6138 15.8412L21.6263 15.7783L19.6652 15.3861L19.6526 15.449L21.6138 15.8412ZM21.6458 15.5822V10.7638H19.6458V15.5822H21.6458ZM20.3122 14.2487V12.0093H18.3122V14.2487H20.3122ZM18.7561 11.1782L17.0829 12.2979L18.1951 13.9601L19.8684 12.8404L18.7561 11.1782ZM17.0829 13.9601L18.7561 15.0798L19.8684 13.4176L18.1951 12.2979L17.0829 13.9601Z" fill="white" mask="url(#path-1-inside-1_100_1321)"/>
</svg>
