<svg width="21" height="21" viewBox="0 0 21 21" fill="none" xmlns="http://www.w3.org/2000/svg">
<path d="M9.33333 14H16.3333V16.3333H9.33333V14ZM7 4.66667H4.66667V7H7V4.66667ZM9.33333 11.6667H16.3333V9.33333H9.33333V11.6667ZM9.33333 7H16.3333V4.66667H9.33333V7ZM7 9.33333H4.66667V11.6667H7V9.33333ZM21 2.33333V18.6667C21 19.95 19.95 21 18.6667 21H2.33333C1.05 21 0 19.95 0 18.6667V2.33333C0 1.05 1.05 0 2.33333 0H18.6667C19.95 0 21 1.05 21 2.33333ZM18.6667 2.33333H2.33333V18.6667H18.6667V2.33333ZM7 14H4.66667V16.3333H7V14Z" fill="white"/>
</svg>
