<svg width="32" height="29" viewBox="0 0 32 29" fill="none" xmlns="http://www.w3.org/2000/svg">
<path d="M30.5455 17.4012H29.0909C29.0909 11.7903 24.5382 7.25223 18.9091 7.25223H17.4545V5.41092C17.8969 5.15635 18.2642 4.79018 18.5195 4.34923C18.7749 3.90828 18.9092 3.40809 18.9091 2.89896C18.909 2.38983 18.7743 1.88971 18.5188 1.44889C18.2632 1.00806 17.8957 0.642082 17.4533 0.387743C17.0108 0.133404 16.5089 -0.000325714 15.9981 5.95731e-07C15.4874 0.000326905 14.9857 0.134698 14.5435 0.389602C14.1014 0.644506 13.7343 1.01096 13.4793 1.4521C13.2244 1.89325 13.0904 2.39355 13.0909 2.90268C13.0909 3.97557 13.6727 4.91797 14.5455 5.41092V7.25223H13.0909C7.46182 7.25223 2.90909 11.7903 2.90909 17.4012H1.45455C0.654545 17.4012 0 18.0536 0 18.851V23.2006C0 23.998 0.654545 24.6504 1.45455 24.6504H2.90909V26.1003C2.90909 26.8693 3.21558 27.6069 3.76114 28.1507C4.3067 28.6945 5.04664 29 5.81818 29H26.1818C27.7964 29 29.0909 27.7096 29.0909 26.1003V24.6504H30.5455C31.3455 24.6504 32 23.998 32 23.2006V18.851C32 18.0536 31.3455 17.4012 30.5455 17.4012ZM12.7855 21.0258C12.2182 19.7499 10.9527 18.851 9.45455 18.851C7.95636 18.851 6.69091 19.7499 6.12364 21.0258C5.93455 20.5764 5.81818 20.0979 5.81818 19.576C5.81818 18.6147 6.2013 17.6927 6.88325 17.013C7.5652 16.3332 8.49012 15.9513 9.45455 15.9513C10.419 15.9513 11.3439 16.3332 12.0258 17.013C12.7078 17.6927 13.0909 18.6147 13.0909 19.576C13.0909 20.0979 12.9745 20.5764 12.7855 21.0258ZM25.8764 21.0258C25.3091 19.7499 24 18.851 22.5455 18.851C21.0909 18.851 19.7818 19.7499 19.2145 21.0258C19.0255 20.5764 18.9091 20.0979 18.9091 19.576C18.9091 18.6147 19.2922 17.6927 19.9742 17.013C20.6561 16.3332 21.581 15.9513 22.5455 15.9513C23.5099 15.9513 24.4348 16.3332 25.1168 17.013C25.7987 17.6927 26.1818 18.6147 26.1818 19.576C26.1818 20.0979 26.0655 20.5764 25.8764 21.0258Z" fill="#DADADA"/>
</svg>
