<svg width="28" height="27" viewBox="0 0 28 27" fill="none" xmlns="http://www.w3.org/2000/svg">
<path d="M13.8055 26C20.7091 26 26.3055 20.4036 26.3055 13.5C26.3055 6.59644 20.7091 1 13.8055 1C6.90198 1 1.30554 6.59644 1.30554 13.5C1.30554 20.4036 6.90198 26 13.8055 26Z" stroke="#F3F3F3" stroke-width="2" stroke-linecap="round" stroke-linejoin="round"/>
<path d="M7.25001 13.4999C8.78413 13.4999 10.0278 12.2562 10.0278 10.7221C10.0278 9.18799 8.78413 7.94434 7.25001 7.94434C5.71588 7.94434 4.47223 9.18799 4.47223 10.7221C4.47223 12.2562 5.71588 13.4999 7.25001 13.4999Z" stroke="#F3F3F3" stroke-width="2" stroke-linecap="round" stroke-linejoin="round"/>
<path d="M18.3611 13.4999C19.8952 13.4999 21.1389 12.2562 21.1389 10.7221C21.1389 9.18799 19.8952 7.94434 18.3611 7.94434C16.827 7.94434 15.5833 9.18799 15.5833 10.7221C15.5833 12.2562 16.827 13.4999 18.3611 13.4999Z" stroke="#F3F3F3" stroke-width="2" stroke-linecap="round" stroke-linejoin="round"/>
<path d="M9.33333 17.6666C9.78594 18.1285 10.3262 18.4955 10.9224 18.7461C11.5186 18.9966 12.1588 19.1256 12.8056 19.1256C13.4523 19.1256 14.0925 18.9966 14.6887 18.7461C15.2849 18.4955 15.8252 18.1285 16.2778 17.6666M1 9.33326H4.47222M21.1389 9.33326H24.6111M10.0278 10.0277C11.8792 8.17631 13.7319 8.17631 15.5833 10.0277" stroke="#F3F3F3" stroke-width="2" stroke-linecap="round" stroke-linejoin="round"/>
</svg>
