<svg width="82" height="54" viewBox="0 0 82 54" fill="none" xmlns="http://www.w3.org/2000/svg">
<path d="M30.4604 28.4916C34.6174 28.6264 39.4377 34.8867 41.3283 38C34.1011 25.5649 38.4216 24.5467 43.731 24.94C43.4593 22.4584 53.2943 19.1854 56 18.5111C43.3389 10.5267 41.9736 2.96717 40.0717 1.3925e-06C36.3494 1.86123 31.1396 1.11269 29 0.50577L31.1736 7.95741C45.6551 12.2193 37.6604 16.3194 31.8528 17.8367C32.9668 21.775 31.3887 26.5809 30.4604 28.4916Z" fill="white"/>
<path d="M1.29688 48.1406C1.29688 46.5469 1.32031 44.8021 1.36719 42.9062L1.21875 39.4141C1.31771 39.3932 1.44792 39.3672 1.60938 39.3359C1.60938 39.3359 1.79167 39.3021 2.15625 39.2344C2.35417 39.1979 2.5625 39.1615 2.78125 39.125L3.4375 39.0156C3.81771 38.9583 4.20833 38.9167 4.60938 38.8906L6.67188 45.4141L7.14844 47.6562L7.60156 47.6094L7.5 45.0938L7.57031 39.0156L9.57031 38.8438C9.52865 40.4115 9.39844 42.4479 9.17969 44.9531L9.0625 48.7891C8.13021 48.9609 7.0651 49.0781 5.86719 49.1406L3.80469 42.5391L3.34375 40.4766L2.92969 40.5391L3.00781 42.8906L3.08594 48.9844L1.29688 49.1406V48.1406ZM11.4688 43.7969C11.4688 43.099 11.5417 42.6953 11.6875 42.5859C11.8333 42.4766 11.9974 42.3672 12.1797 42.2578C12.362 42.1432 12.5625 42.0312 12.7812 41.9219C13 41.8125 13.2266 41.7083 13.4609 41.6094C13.7005 41.5104 13.9349 41.4219 14.1641 41.3438C14.6536 41.1771 15.0182 41.0938 15.2578 41.0938C15.5026 41.0938 15.7005 41.1068 15.8516 41.1328C16.0026 41.1536 16.1406 41.1901 16.2656 41.2422C16.5521 41.362 16.7135 41.5365 16.75 41.7656C16.9219 42.8542 17.0078 44.151 17.0078 45.6562V46.1172L13.2656 46.1641V47.1797C13.6719 47.2786 14.1562 47.3698 14.7188 47.4531L16.0625 47.6719C16.4062 47.724 16.7578 47.7839 17.1172 47.8516L16.6562 49.5625C15.224 49.3385 13.7031 48.9766 12.0938 48.4766C11.724 48.3568 11.5339 48.1406 11.5234 47.8281L11.4688 43.7969ZM15.25 44.4375C15.25 43.9479 15.2005 43.4323 15.1016 42.8906C14.8932 42.8906 14.7266 42.901 14.6016 42.9219C14.4766 42.9427 14.3516 42.9714 14.2266 43.0078C14.1016 43.0443 13.974 43.0859 13.8438 43.1328C13.5365 43.2422 13.3333 43.3359 13.2344 43.4141V44.8203L15.25 44.6016V44.4375ZM18.6953 47.75C18.6953 47.75 19.2526 47.7161 20.3672 47.6484C20.8828 47.6172 21.401 47.5651 21.9219 47.4922L21.9766 46.5078L19.2344 45.4297C19.0729 45.3672 18.9505 45.2474 18.8672 45.0703C18.7839 44.888 18.7422 44.7448 18.7422 44.6406C18.7422 44.5365 18.7422 44.4714 18.7422 44.4453C18.7474 44.4141 18.7552 44.3438 18.7656 44.2344L18.9375 42.7578C18.9896 42.3411 19.2005 42.0521 19.5703 41.8906C19.7995 41.7865 20.0885 41.6927 20.4375 41.6094C21.151 41.4427 21.651 41.3307 21.9375 41.2734L22.6953 41.1094C22.9141 41.0677 23.1094 41.0312 23.2812 41L23.6406 42.7891L20.5938 43.2422L20.4688 43.9922L23.3516 45.3359C23.7005 45.4974 23.849 45.8073 23.7969 46.2656L23.5859 48.1484C23.5391 48.5495 23.2135 48.8177 22.6094 48.9531C21.9635 49.1302 21.2474 49.2604 20.4609 49.3438C19.6797 49.4323 19.1641 49.4818 18.9141 49.4922L18.6953 47.75ZM25.5391 39.4609L27.4453 39.0938V41.5469L29.4062 41.1797L29.5547 42.9531L27.4766 43.1094L27.3281 47.3359C27.7135 47.4557 28.0469 47.5495 28.3281 47.6172C29.0312 47.7839 29.4609 47.888 29.6172 47.9297L29.2031 49.5625C28.0469 49.3073 27.0339 49.013 26.1641 48.6797C25.8099 48.5495 25.6328 48.3151 25.6328 47.9766L25.5391 39.4609ZM32.9531 44.375C32.9531 45.6302 33.0182 46.7188 33.1484 47.6406L34.6875 47.5625C34.9688 46.4479 35.1094 45.3594 35.1094 44.2969C35.1094 43.8698 35.0807 43.4896 35.0234 43.1562C34.7109 43 33.6068 42.9219 31.7109 42.9219H31.3125C31.2031 42.9219 31.0833 42.9271 30.9531 42.9375L31.2891 41.125C31.3776 41.1198 31.4583 41.1146 31.5312 41.1094C31.6094 41.099 31.6875 41.0938 31.7656 41.0938L32 41.0781C32.0781 41.0781 32.2969 41.0781 32.6562 41.0781C33.6875 41.0781 34.8177 41.2161 36.0469 41.4922C36.4375 41.5911 36.6771 41.7656 36.7656 42.0156C36.901 42.401 36.9688 43.0286 36.9688 43.8984C36.9688 45.487 36.7266 47.0234 36.2422 48.5078C36.2005 48.6432 36.151 48.7578 36.0938 48.8516C36.0417 48.9453 35.9479 49.0052 35.8125 49.0312C35.6771 49.0625 35.5182 49.0911 35.3359 49.1172C35.1536 49.1432 34.974 49.1667 34.7969 49.1875C34.4115 49.224 34.1458 49.2422 34 49.2422C33.8542 49.2422 33.6979 49.2396 33.5312 49.2344C33.3646 49.2344 33.1823 49.2292 32.9844 49.2188C32.4635 49.1927 32.112 49.1458 31.9297 49.0781C31.7474 49.0156 31.6224 48.9062 31.5547 48.75C31.4922 48.5938 31.4297 48.3438 31.3672 48C31.2214 47.1979 31.1484 46.2839 31.1484 45.2578C31.1484 44.8672 31.1589 44.4792 31.1797 44.0938L32.9531 43.7422V44.375ZM38.8672 42.9375L38.8516 41.4922L40.5156 41.3203L40.7891 42.5078L41.9844 41.1953H42.9141L43.3047 43.0234C43.3047 43.0234 42.8958 43.112 42.0781 43.2891C41.6875 43.3724 41.2839 43.4635 40.8672 43.5625L40.7578 48.9062L38.9922 49.0625L38.8672 42.9375ZM44.5625 43.4922C44.5938 42.8359 44.6432 42.2135 44.7109 41.625C44.7109 41.625 44.7604 41.1901 44.8594 40.3203C44.8958 40.0391 44.9271 39.7526 44.9531 39.4609C46.0729 39.1484 47.2292 38.9531 48.4219 38.875L49.5547 43.5625L49.9219 47.2422L50.2578 47.2109L50.9844 39.4453C51.724 39.1849 52.6198 39 53.6719 38.8906C53.9948 38.8594 54.2969 38.8438 54.5781 38.8438L55.5625 43.7188L56.2656 48.9844L54.2422 49.1953L53.625 43.8984L53.1094 40.5156L52.6328 40.5781L52.3125 43.9766L51.5547 48.7734C50.6589 48.9401 49.6693 49.0365 48.5859 49.0625L46.9531 40.6172L46.4375 40.6953L46.375 43.8281L45.9062 49.1484L43.9531 48.9062L44.5625 43.4922ZM57.5469 41.3359L59.3984 40.9531L59.5469 47.2578C59.7656 47.3307 59.9349 47.3672 60.0547 47.3672C60.1797 47.3672 60.2839 47.3672 60.3672 47.3672C60.4557 47.362 60.5573 47.349 60.6719 47.3281C60.9583 47.2708 61.2604 47.1615 61.5781 47L61.6406 41.4141L63.4141 41.1953L63.5078 49.9844C63.5078 50.25 63.3385 50.5026 63 50.7422C62.1354 51.3411 61.5 51.7682 61.0938 52.0234L59.9688 52.7188C59.6146 52.9219 59.2682 53.112 58.9297 53.2891L57.9766 51.5781C59.8516 50.7031 61.1328 50.0573 61.8203 49.6406L61.7031 47.7188L60.5391 49H58.5391C58.3828 48.9844 58.224 48.9089 58.0625 48.7734C57.8125 48.5703 57.6875 48.3516 57.6875 48.1172L57.5469 41.3359ZM65.6484 42.9375L65.6328 41.4922L67.2969 41.3203L67.5703 42.5078L68.7656 41.1953H69.6953L70.0859 43.0234C70.0859 43.0234 69.6771 43.112 68.8594 43.2891C68.4688 43.3724 68.0651 43.4635 67.6484 43.5625L67.5391 48.9062L65.7734 49.0625L65.6484 42.9375ZM73.1797 37.2422C73.237 37.4453 73.2656 37.6745 73.2656 37.9297C73.2656 38.1797 73.2578 38.3932 73.2422 38.5703C73.2266 38.7422 73.2083 38.9036 73.1875 39.0547C73.1354 39.3828 73.0755 39.6068 73.0078 39.7266L71.2109 39.6484C71.2995 39.1901 71.3438 38.4583 71.3438 37.4531L73.1797 37.2422ZM73.1172 41.1797C73.1432 41.7161 73.1562 42.1667 73.1562 42.5312C73.1562 42.8958 73.1484 43.3229 73.1328 43.8125L72.9531 49L71.2891 49.1406L71.1328 41.4297L73.1172 41.1797ZM75.125 43.7969C75.125 43.099 75.1979 42.6953 75.3438 42.5859C75.4896 42.4766 75.6536 42.3672 75.8359 42.2578C76.0182 42.1432 76.2188 42.0312 76.4375 41.9219C76.6562 41.8125 76.8828 41.7083 77.1172 41.6094C77.3568 41.5104 77.5911 41.4219 77.8203 41.3438C78.3099 41.1771 78.6745 41.0938 78.9141 41.0938C79.1589 41.0938 79.3568 41.1068 79.5078 41.1328C79.6589 41.1536 79.7969 41.1901 79.9219 41.2422C80.2083 41.362 80.3698 41.5365 80.4062 41.7656C80.5781 42.8542 80.6641 44.151 80.6641 45.6562V46.1172L76.9219 46.1641V47.1797C77.3281 47.2786 77.8125 47.3698 78.375 47.4531L79.7188 47.6719C80.0625 47.724 80.4141 47.7839 80.7734 47.8516L80.3125 49.5625C78.8802 49.3385 77.3594 48.9766 75.75 48.4766C75.3802 48.3568 75.1901 48.1406 75.1797 47.8281L75.125 43.7969ZM78.9062 44.4375C78.9062 43.9479 78.8568 43.4323 78.7578 42.8906C78.5495 42.8906 78.3828 42.901 78.2578 42.9219C78.1328 42.9427 78.0078 42.9714 77.8828 43.0078C77.7578 43.0443 77.6302 43.0859 77.5 43.1328C77.1927 43.2422 76.9896 43.3359 76.8906 43.4141V44.8203L78.9062 44.6016V44.4375Z" fill="white"/>
</svg>
