<svg width="24" height="19" viewBox="0 0 24 19" fill="none" xmlns="http://www.w3.org/2000/svg">
<path d="M0 19V13.0625H4.8V14.25H7.2V13.0625H16.8V14.25H19.2V13.0625H24V19H0ZM0 7.125C0 6.47188 0.2352 5.91256 0.7056 5.44706C1.1752 4.98235 1.74 4.75 2.4 4.75H6V2.375C6 1.72187 6.2352 1.16296 6.7056 0.69825C7.1752 0.23275 7.74 0 8.4 0H15.6C16.26 0 16.8252 0.23275 17.2956 0.69825C17.7652 1.16296 18 1.72187 18 2.375V4.75H21.6C22.26 4.75 22.8252 4.98235 23.2956 5.44706C23.7652 5.91256 24 6.47188 24 7.125V11.875H19.2V9.5H16.8V11.875H7.2V9.5H4.8V11.875H0V7.125ZM8.4 4.75H15.6V2.375H8.4V4.75Z" fill="white"/>
</svg>
