<svg width="19" height="19" viewBox="0 0 19 19" fill="none" xmlns="http://www.w3.org/2000/svg">
<path d="M16.5312 11.898L18.539 12.9025C18.7966 13.0313 18.7966 13.3989 18.539 13.5277L9.67893 17.9589C9.58185 18.0074 9.47484 18.0326 9.36634 18.0326C9.25785 18.0326 9.15084 18.0074 9.05376 17.9589L0.193657 13.5277C0.135778 13.4985 0.0871357 13.4539 0.0531491 13.3987C0.0191625 13.3435 0.00116674 13.2799 0.00116674 13.2151C0.00116674 13.1503 0.0191625 13.0868 0.0531491 13.0316C0.0871357 12.9764 0.135778 12.9317 0.193657 12.9025L2.20263 11.898L8.42741 15.011C9.01863 15.306 9.71522 15.306 10.3053 15.011L16.5301 11.8969L16.5312 11.898ZM9.05376 0.0736576C9.15084 0.0252159 9.25785 0 9.36634 0C9.47484 0 9.58185 0.0252159 9.67893 0.0736576L18.539 4.50371C18.5969 4.53307 18.6454 4.57787 18.6794 4.63315C18.7133 4.68842 18.7312 4.75202 18.7312 4.81688C18.7312 4.88174 18.7133 4.94533 18.6794 5.00061C18.6454 5.05588 18.5969 5.10069 18.539 5.13005L9.67893 9.55893C9.58185 9.60737 9.47484 9.63258 9.36634 9.63258C9.25785 9.63258 9.15084 9.60737 9.05376 9.55893L0.193657 5.13005C0.135472 5.10099 0.0865312 5.0563 0.0523251 5.00098C0.0181191 4.94567 0 4.88192 0 4.81688C0 4.75184 0.0181191 4.68809 0.0523251 4.63277C0.0865312 4.57746 0.135472 4.53276 0.193657 4.50371L9.05376 0.0736576Z" fill="white"/>
<path d="M16.5312 7.69824L18.539 8.70273C18.7966 8.83151 18.7966 9.19912 18.539 9.3279L9.67892 13.7579C9.58184 13.8064 9.47483 13.8316 9.36633 13.8316C9.25784 13.8316 9.15083 13.8064 9.05375 13.7579L0.19365 9.3279C0.135771 9.29873 0.0871286 9.25406 0.053142 9.19887C0.0191555 9.14367 0.00115967 9.08013 0.00115967 9.01532C0.00115967 8.9505 0.0191555 8.88696 0.053142 8.83176C0.0871286 8.77657 0.135771 8.7319 0.19365 8.70273L2.20263 7.69824L8.42741 10.8112C9.01863 11.1062 9.71521 11.1062 10.3053 10.8112L16.53 7.69824H16.5312Z" fill="white"/>
</svg>
