<svg width="21" height="24" viewBox="0 0 21 24" fill="none" xmlns="http://www.w3.org/2000/svg">
<path d="M14.6443 1.30664C14.7502 2.5519 15.2507 3.73599 16.0797 4.68278C17.0159 5.76311 18.1311 6.2712 19.0054 6.50857C19.4099 6.61839 19.7655 6.67108 20.0328 6.69598V9.59035C18.3733 9.49837 16.7704 8.93503 15.4148 7.96149L14.6232 7.39295V8.36761V16.2808C14.6232 19.9682 11.6384 22.9518 7.96478 22.9518C4.53287 22.9518 1.3064 20.1726 1.3064 16.2808C1.3064 12.4239 4.5904 9.36919 8.44607 9.63697V12.5407C6.20988 12.2469 4.2064 14.0072 4.2064 16.2808C4.2064 18.3711 5.91727 20.0518 7.97736 20.0518H7.97744C8.95168 20.0517 9.88786 19.6735 10.5888 18.9969C11.2898 18.3202 11.7009 17.398 11.7354 16.4244L11.7358 16.4155V16.4066V1.30664H14.6443Z" fill="white" stroke="white"/>
</svg>
