<svg width="28" height="29" viewBox="0 0 28 29" fill="none" xmlns="http://www.w3.org/2000/svg">
<path fill-rule="evenodd" clip-rule="evenodd" d="M4.92707 1.54936V2.73416C3.54351 2.93779 2.1668 3.18786 0.799158 3.48398C0.544586 3.53939 0.320734 3.69379 0.174428 3.91487C0.0281225 4.13595 -0.0293011 4.40658 0.0141696 4.67016C0.35366 6.71943 1.34993 8.59341 2.84473 9.99446C4.33953 11.3955 6.24716 12.2433 8.26461 12.4031C9.33865 13.3049 10.6002 13.9408 11.9516 14.2618C11.8232 15.8291 11.3083 17.337 10.4556 18.6434H9.46226C8.06971 18.6434 6.94196 19.8033 6.94196 21.2325V24.8573H5.93384C5.13173 24.8573 4.36248 25.1847 3.7953 25.7674C3.22812 26.35 2.90949 27.1403 2.90949 27.9643C2.90949 28.536 3.36112 29 3.9176 29H24.08C24.3473 29 24.6038 28.8909 24.7928 28.6967C24.9819 28.5024 25.0881 28.239 25.0881 27.9643C25.0881 27.1403 24.7695 26.35 24.2023 25.7674C23.6351 25.1847 22.8658 24.8573 22.0637 24.8573H21.0556V21.2325C21.0556 19.8019 19.9265 18.6434 18.5353 18.6434H17.542C16.6897 17.3369 16.1753 15.829 16.0473 14.2618C17.3989 13.9404 18.6604 13.304 19.7343 12.4017C21.752 12.2422 23.6599 11.3946 25.155 9.99348C26.6501 8.59241 27.6465 6.71826 27.9861 4.66878C28.0291 4.40522 27.9714 4.13476 27.8248 3.91396C27.6783 3.69315 27.4543 3.53909 27.1998 3.48398C25.8327 3.1873 24.4564 2.93723 23.0732 2.73416V1.54798C23.0731 1.29538 22.9831 1.05154 22.8202 0.862326C22.6573 0.673114 22.4328 0.551582 22.1887 0.520597C19.4719 0.173142 16.7366 -0.000724111 13.9988 2.26654e-06C11.2258 2.26654e-06 8.49312 0.176756 5.80883 0.520597C5.56506 0.551892 5.3408 0.673559 5.17818 0.86274C5.01557 1.05192 4.92579 1.29559 4.92572 1.54798L4.92707 1.54936ZM4.92707 5.17971C4.92707 6.83125 5.34644 8.38336 6.07901 9.72835C5.17044 9.30979 4.35805 8.69901 3.69492 7.93591C3.0318 7.1728 2.53285 6.27456 2.23069 5.29984C3.12594 5.12138 4.02496 4.96346 4.92707 4.8262V5.17971ZM23.0732 5.17971V4.8262C23.9792 4.96429 24.8784 5.12171 25.7696 5.29984C25.4675 6.27459 24.9686 7.17288 24.3054 7.93599C23.6423 8.69911 22.8299 9.30986 21.9213 9.72835C22.6788 8.33881 23.0755 6.77235 23.0732 5.17971Z" fill="#DADADA"/>
</svg>
