<svg xmlns="http://www.w3.org/2000/svg" viewBox="0 0 79.55 53.29"><defs><style>.cls-1{fill:#fff;}</style></defs><title>Recurso 1</title><g id="Capa_2" data-name="Capa 2"><g id="Capa_1-2" data-name="Capa 1"><path class="cls-1" d="M29.24,28.49c4.16.14,9,6.4,10.87,9.51-7.23-12.44-2.91-13.45,2.4-13.06-.27-2.48,9.57-5.75,12.27-6.43C42.12,10.53,40.75,3,38.85,0c-3.72,1.86-8.93,1.11-11.07.51L30,8c14.49,4.26,6.49,8.36.68,9.88C31.75,21.77,30.17,26.58,29.24,28.49Z"/><path class="cls-1" d="M.08,48.14c0-1.59,0-3.34.07-5.23L0,39.41l.39-.07.55-.11.62-.11.66-.1c.38-.06.77-.1,1.17-.13l2.06,6.52.48,2.25.45,0-.1-2.52L6.35,39l2-.18Q8.29,41.19,8,45l-.12,3.84a24.67,24.67,0,0,1-3.19.35l-2.06-6.6-.46-2.06-.42.06.08,2.35L1.87,49l-1.79.16ZM10.25,43.8c0-.7.07-1.1.22-1.21a5.2,5.2,0,0,1,.49-.33,5.58,5.58,0,0,1,.6-.34l.68-.31.71-.27A4,4,0,0,1,14,41.09a4.42,4.42,0,0,1,.59,0,1.85,1.85,0,0,1,.42.11.72.72,0,0,1,.48.53,25.42,25.42,0,0,1,.26,3.89v.46l-3.74,0v1a14.73,14.73,0,0,0,1.45.27l1.34.22,1.06.18-.46,1.71a31.38,31.38,0,0,1-4.56-1.08.72.72,0,0,1-.58-.65Zm3.78.64a8.54,8.54,0,0,0-.15-1.55,3.34,3.34,0,0,0-.5,0A2.49,2.49,0,0,0,13,43c-.13,0-.25.08-.38.12a2.56,2.56,0,0,0-.61.28v1.41l2-.22Zm3.45,3.31,1.67-.1c.51,0,1-.08,1.55-.16l.06-1L18,45.43a.62.62,0,0,1-.37-.36,1.23,1.23,0,0,1-.13-.43v-.19a1.64,1.64,0,0,0,0-.22l.17-1.47a1,1,0,0,1,.63-.87,5,5,0,0,1,.87-.28l1.5-.34.76-.16.58-.11.36,1.79-3,.45-.13.75,2.88,1.35a.81.81,0,0,1,.45.93l-.21,1.88c-.05.4-.38.67-1,.8a12.9,12.9,0,0,1-2.15.39c-.78.09-1.29.14-1.54.15Zm6.84-8.29,1.91-.37v2.46l2-.37L28.34,43l-2.08.16-.15,4.23c.38.12.72.21,1,.28l1.29.31L28,49.56a21.38,21.38,0,0,1-3-.88.71.71,0,0,1-.54-.7Zm7.41,4.91a23.66,23.66,0,0,0,.2,3.27l1.54-.08a13.32,13.32,0,0,0,.42-3.26,6.43,6.43,0,0,0-.09-1.14,11.74,11.74,0,0,0-3.31-.24h-.4l-.36,0,.34-1.82h.24l.24,0h.89a15.93,15.93,0,0,1,3.39.41.94.94,0,0,1,.72.53,6.38,6.38,0,0,1,.2,1.88A14.63,14.63,0,0,1,35,48.51a1.84,1.84,0,0,1-.14.34.37.37,0,0,1-.29.18l-.47.09-.54.07-.8.05h-1a4.22,4.22,0,0,1-1.06-.14.56.56,0,0,1-.37-.33,3.61,3.61,0,0,1-.19-.75,15.05,15.05,0,0,1-.22-2.74q0-.59,0-1.17l1.77-.35Zm5.92-1.43,0-1.45,1.67-.17.27,1.19,1.2-1.31h.93L42.09,43l-1.23.27-1.21.27-.11,5.35-1.77.15Zm5.69.55c0-.65.08-1.28.15-1.87l.15-1.3c0-.28.07-.57.09-.86a17.36,17.36,0,0,1,3.47-.59l1.14,4.69.36,3.68.34,0,.73-7.76a11.34,11.34,0,0,1,2.68-.56c.33,0,.63,0,.91,0l1,4.88L55.05,49l-2,.22-.61-5.3-.52-3.38-.48.06L51.09,44l-.75,4.79a17.8,17.8,0,0,1-3,.29l-1.64-8.44-.51.08-.06,3.13-.47,5.32-2-.24Zm13-2.15L58.18,41l.15,6.31a1.88,1.88,0,0,0,.51.11h.31l.3,0a3.74,3.74,0,0,0,.91-.33l.06-5.59,1.78-.21L62.29,50a1,1,0,0,1-.51.76c-.86.6-1.5,1-1.9,1.28l-1.13.7-1,.57-1-1.71c1.87-.88,3.15-1.52,3.84-1.94l-.12-1.92L59.32,49h-2a.92.92,0,0,1-.48-.23.84.84,0,0,1-.37-.65Zm8.1,1.6,0-1.45,1.67-.17.27,1.19,1.2-1.31h.93L68.87,43l-1.23.27-1.21.27-.11,5.35-1.77.15ZM72,37.24a2.45,2.45,0,0,1,.09.69,5.85,5.85,0,0,1,0,.64c0,.17,0,.33,0,.48a2.17,2.17,0,0,1-.18.68L70,39.65a12.57,12.57,0,0,0,.14-2.2Zm-.06,3.94c0,.54,0,1,0,1.35s0,.79,0,1.28L71.73,49l-1.66.14-.16-7.71Zm2,2.62c0-.7.07-1.1.22-1.21a4.16,4.16,0,0,1,.49-.33,5.58,5.58,0,0,1,.6-.34l.68-.31.7-.27a4.09,4.09,0,0,1,1.1-.25,4.42,4.42,0,0,1,.59,0,1.64,1.64,0,0,1,.41.11.72.72,0,0,1,.49.53,25.42,25.42,0,0,1,.26,3.89v.46l-3.75,0v1c.41.1.89.19,1.46.27l1.34.22,1,.18-.46,1.71a31.69,31.69,0,0,1-4.56-1.08.7.7,0,0,1-.57-.65Zm3.78.64a8.54,8.54,0,0,0-.15-1.55,3.25,3.25,0,0,0-.5,0,2.62,2.62,0,0,0-.38.09l-.38.12a2.78,2.78,0,0,0-.61.28v1.41l2-.22Z"/></g></g></svg>